<?xml version="1.0" encoding="utf-8"?>
<svg version="1.1" xmlns:xlink="http://www.w3.org/1999/xlink" width="18px" height="18px" xmlns="http://www.w3.org/2000/svg">
  <g transform="matrix(1 0 0 1 -770 -4229 )">
    <path d="M 779 4229  C 784.04 4229  788 4232.96  788 4238  C 788 4243.04  784.04 4247  779 4247  C 773.96 4247  770 4243.04  770 4238  C 770 4232.96  773.96 4229  779 4229  Z " fill-rule="nonzero" fill="#ffffff" stroke="none" fill-opacity="0" />
    <path d="M 779 4229.5  C 783.76 4229.5  787.5 4233.24  787.5 4238  C 787.5 4242.76  783.76 4246.5  779 4246.5  C 774.24 4246.5  770.5 4242.76  770.5 4238  C 770.5 4233.24  774.24 4229.5  779 4229.5  Z " stroke-width="1" stroke="#1ec695" fill="none" />
  </g>
</svg>