<?xml version="1.0" encoding="utf-8"?>
<svg version="1.1" xmlns:xlink="http://www.w3.org/1999/xlink" width="58px" height="26px" xmlns="http://www.w3.org/2000/svg">
  <g transform="matrix(1 0 0 1 -1032 -4370 )">
    <path d="M 1089 4375.2  C 1089 4375.2  1089 4390.8  1089 4390.8  C 1089 4393.611586206896  1074.116923076923 4395  1061 4395  C 1047.883076923077 4395  1033 4393.611586206896  1033 4390.8  C 1033 4390.8  1033 4375.2  1033 4375.2  C 1033 4372.388413793104  1047.883076923077 4371  1061 4371  C 1074.116923076923 4371  1089 4372.388413793104  1089 4375.2  Z " fill-rule="nonzero" fill="#ff5722" stroke="none" />
    <path d="M 1032.5 4375.5  C 1032.5 4372.7  1045.04 4370.5  1061 4370.5  C 1076.96 4370.5  1089.5 4372.7  1089.5 4375.5  C 1089.5 4375.5  1089.5 4390.5  1089.5 4390.5  C 1089.5 4393.3  1076.96 4395.5  1061 4395.5  C 1045.04 4395.5  1032.5 4393.3  1032.5 4390.5  C 1032.5 4390.5  1032.5 4375.5  1032.5 4375.5  Z " stroke-width="1" stroke-dasharray="1,1" stroke="#ffffff" fill="none" stroke-dashoffset="0.5" />
    <path d="M 1089.5 4375.2  C 1089.5 4377.832  1076.96 4379.9  1061 4379.9  C 1045.04 4379.9  1032.5 4377.832  1032.5 4375.2  " stroke-width="1" stroke-dasharray="1,1" stroke="#ffffff" fill="none" stroke-dashoffset="0.5" />
  </g>
</svg>