<?xml version="1.0" encoding="utf-8"?>
<svg version="1.1" xmlns:xlink="http://www.w3.org/1999/xlink" width="13px" height="10px" xmlns="http://www.w3.org/2000/svg">
  <defs>
    <mask fill="white" id="clip29">
      <path d="M 12.7587890625 0.32986111111108585  C 12.919596354166629 0.5497685185185333  13 0.8101851851851904  13 1.1111111111110858  C 13 1.4120370370370097  12.919596354166629 1.6724537037036669  12.7587890625 1.8923611111110858  L 7.0712890625 9.670138888888914  C 6.910481770833371 9.890046296296333  6.720052083333371 10  6.5 10  C 6.279947916666629 10  6.089518229166629 9.890046296296333  5.9287109375 9.670138888888914  L 0.2412109375 1.8923611111110858  C 0.08040364583337123 1.6724537037036669  0 1.4120370370370097  0 1.1111111111110858  C 0 0.8101851851851904  0.08040364583337123 0.5497685185185333  0.2412109375 0.32986111111108585  C 0.40201822916662877 0.10995370370366686  0.5924479166666288 0  0.8125 0  L 12.1875 0  C 12.407552083333371 0  12.597981770833371 0.10995370370366686  12.7587890625 0.32986111111108585  Z " fill-rule="evenodd" />
    </mask>
  </defs>
  <g transform="matrix(1 0 0 1 -749 -239 )">
    <path d="M 12.7587890625 0.32986111111108585  C 12.919596354166629 0.5497685185185333  13 0.8101851851851904  13 1.1111111111110858  C 13 1.4120370370370097  12.919596354166629 1.6724537037036669  12.7587890625 1.8923611111110858  L 7.0712890625 9.670138888888914  C 6.910481770833371 9.890046296296333  6.720052083333371 10  6.5 10  C 6.279947916666629 10  6.089518229166629 9.890046296296333  5.9287109375 9.670138888888914  L 0.2412109375 1.8923611111110858  C 0.08040364583337123 1.6724537037036669  0 1.4120370370370097  0 1.1111111111110858  C 0 0.8101851851851904  0.08040364583337123 0.5497685185185333  0.2412109375 0.32986111111108585  C 0.40201822916662877 0.10995370370366686  0.5924479166666288 0  0.8125 0  L 12.1875 0  C 12.407552083333371 0  12.597981770833371 0.10995370370366686  12.7587890625 0.32986111111108585  Z " fill-rule="nonzero" fill="#666666" stroke="none" transform="matrix(1 0 0 1 749 239 )" />
    <path d="M 12.7587890625 0.32986111111108585  C 12.919596354166629 0.5497685185185333  13 0.8101851851851904  13 1.1111111111110858  C 13 1.4120370370370097  12.919596354166629 1.6724537037036669  12.7587890625 1.8923611111110858  L 7.0712890625 9.670138888888914  C 6.910481770833371 9.890046296296333  6.720052083333371 10  6.5 10  C 6.279947916666629 10  6.089518229166629 9.890046296296333  5.9287109375 9.670138888888914  L 0.2412109375 1.8923611111110858  C 0.08040364583337123 1.6724537037036669  0 1.4120370370370097  0 1.1111111111110858  C 0 0.8101851851851904  0.08040364583337123 0.5497685185185333  0.2412109375 0.32986111111108585  C 0.40201822916662877 0.10995370370366686  0.5924479166666288 0  0.8125 0  L 12.1875 0  C 12.407552083333371 0  12.597981770833371 0.10995370370366686  12.7587890625 0.32986111111108585  Z " stroke-width="2" stroke="#e4e4e4" fill="none" transform="matrix(1 0 0 1 749 239 )" mask="url(#clip29)" />
  </g>
</svg>