<?xml version="1.0" encoding="utf-8"?>
<svg version="1.1" xmlns:xlink="http://www.w3.org/1999/xlink" width="26px" height="26px" xmlns="http://www.w3.org/2000/svg">
  <defs>
    <filter x="-3px" y="-1px" width="26px" height="26px" filterUnits="userSpaceOnUse" id="filter8">
      <feOffset dx="0" dy="1" in="SourceAlpha" result="shadowOffsetInner" />
      <feGaussianBlur stdDeviation="1.5" in="shadowOffsetInner" result="shadowGaussian" />
      <feComposite in2="shadowGaussian" operator="atop" in="SourceAlpha" result="shadowComposite" />
      <feColorMatrix type="matrix" values="0 0 0 0 0  0 0 0 0 0  0 0 0 0 0  0 0 0 0.34901960784313724 0  " in="shadowComposite" />
    </filter>
    <g id="widget9">
      <path d="M 10 1  C 15.600000000000001 1  20 5.3999999999999995  20 11  C 20 16.6  15.600000000000001 21  10 21  C 4.3999999999999995 21  0 16.6  0 11  C 0 5.3999999999999995  4.3999999999999995 1  10 1  Z " fill-rule="nonzero" fill="#ffffff" stroke="none" />
      <path d="M 10 1.5  C 15.32 1.5  19.5 5.68  19.5 11  C 19.5 16.32  15.32 20.5  10 20.5  C 4.68 20.5  0.5 16.32  0.5 11  C 0.5 5.68  4.68 1.5  10 1.5  Z " stroke-width="1" stroke="#ededed" fill="none" />
    </g>
  </defs>
  <g transform="matrix(1 0 0 1 3 1 )">
    <use xlink:href="#widget9" filter="url(#filter8)" />
    <use xlink:href="#widget9" />
  </g>
</svg>