<?xml version="1.0" encoding="utf-8"?>
<svg version="1.1" xmlns:xlink="http://www.w3.org/1999/xlink" width="26px" height="26px" xmlns="http://www.w3.org/2000/svg">
  <defs>
    <filter x="14px" y="-1px" width="26px" height="26px" filterUnits="userSpaceOnUse" id="filter6">
      <feOffset dx="0" dy="1" in="SourceAlpha" result="shadowOffsetInner" />
      <feGaussianBlur stdDeviation="1.5" in="shadowOffsetInner" result="shadowGaussian" />
      <feComposite in2="shadowGaussian" operator="atop" in="SourceAlpha" result="shadowComposite" />
      <feColorMatrix type="matrix" values="0 0 0 0 0  0 0 0 0 0  0 0 0 0 0  0 0 0 0.34901960784313724 0  " in="shadowComposite" />
    </filter>
    <g id="widget7">
      <path d="M 27 1  C 32.6 1  37 5.3999999999999995  37 11  C 37 16.6  32.6 21  27 21  C 21.4 21  17 16.6  17 11  C 17 5.3999999999999995  21.4 1  27 1  Z " fill-rule="nonzero" fill="#1e98d7" stroke="none" />
      <path d="M 27 1.5  C 32.32 1.5  36.5 5.68  36.5 11  C 36.5 16.32  32.32 20.5  27 20.5  C 21.68 20.5  17.5 16.32  17.5 11  C 17.5 5.68  21.68 1.5  27 1.5  Z " stroke-width="1" stroke="#1e98d7" fill="none" />
    </g>
  </defs>
  <g transform="matrix(1 0 0 1 -14 1 )">
    <use xlink:href="#widget7" filter="url(#filter6)" />
    <use xlink:href="#widget7" />
  </g>
</svg>