<?xml version="1.0" encoding="utf-8"?>
<svg version="1.1" xmlns:xlink="http://www.w3.org/1999/xlink" width="14px" height="10px" xmlns="http://www.w3.org/2000/svg">
  <g transform="matrix(1 0 0 1 -83 -12 )">
    <path d="M 0.536931818181813 2.620863970588232  L 3.088849431818204 2.620863970588232  L 6.262713068181796 0.2660845588235361  C 6.350970202710528 0.20059473440323927  6.460758818615943 0.16490029608684154  6.573934666874749 0.16490029608684154  C 6.8485080510236 0.16490029608684154  7.071093757783842 0.37065178973077195  7.071093757783842 0.6244591196162617  L 7.071093749999989 9.391084558823536  C 7.070977292060235 9.64481572618925  6.848425718691118 9.850448405938835  6.5739347038362155 9.850448405938835  C 6.461195750809509 9.850448405938835  6.351804340283934 9.81502859539404  6.263707386363649 9.75  L 3.0023437499999943 7.34375  L 0.536931818181813 7.34375  C 0.26235843403298986 7.34375  0.03977272727271952 7.13799850635607  0.03977272727271952 6.88419117647058  L 0.03977272727271952 3.080422794117652  C 0.03977272727271952 2.8266154642321624  0.26235843403298986 2.620863970588232  0.536931818181813 2.620863970588232  Z M 10.763991477272725 4.984375  C 10.765347650865294 6.059443420816166  10.297735558812946 7.089611516135733  9.46690340909089 7.841911764705884  C 9.37444471931093 7.923380281182233  9.25161045799274 7.968827199241304  9.123875447749896 7.968827199241304  C 8.849302063601044 7.968827199241304  8.626716356840802 7.763075705597373  8.626716356840802 7.509268375711883  C 8.626716356840802 7.3882701562978355  8.678340187910464 7.272153932179435  8.770383522727286 7.18612132352942  C 9.410769351751412 6.606621178510238  9.77107148546827 5.812763460837658  9.769673295454538 4.984375  C 9.771191266516183 4.217128736137056  9.462073875746597 3.4771259918454405  8.903124999999989 2.909926470588232  C 8.81747321579303 2.824877193322493  8.769854758567476 2.7129931588510487  8.769854758567476 2.5967955302929226  C 8.769854758567476 2.3429882004074614  8.992440465327718 2.137236706763531  9.26701384947657 2.137236706763531  C 9.409192076255579 2.137236706763531  9.544567133933327 2.1935054098319426  9.638920454545456 2.2918198529411598  C 10.364194070579714 3.0281715170290227  10.765481695586203 3.9885456074958086  10.763991477272725 4.984375  Z M 13.96022727272728 4.984375  C 13.96022727272728 6.8203125  13.187144886363654 8.544577205882348  11.830397727272725 9.83455882352942  C 11.736565504647444 9.92560530972571  11.60647118473213 9.977133140798571  11.470434801290025 9.977133140798571  C 11.195861417141202 9.977133140798571  10.973275710380932 9.771381647154612  10.973275710380932 9.517574317269151  C 10.973275710380932 9.396335550458929  11.02510444325901 9.28000853309112  11.117471590909105 9.19393382352942  C 12.304993752403618 8.067910471031894  12.968478119369536 6.5569172828741955  12.965909090909093 4.984375  C 12.965909090909093 3.4232536764706083  12.323082386363637 1.9563419117646959  11.18806818181821 0.8428308823529278  C 11.103371773713548 0.7579540324196046  11.056345731338013 0.6467148197791346  11.056345731338013 0.5312439203571273  C 11.056345731338013 0.2774365904716376  11.278931438098255 0.07168509682770718  11.553504822247106 0.07168509682770718  C 11.688769673907416 0.07168509682770718  11.818195065440904 0.12263190421759873  11.911931818181813 0.21277573529411598  C 13.21946022727272 1.4949448529411598  13.96022727272728 3.18612132352942  13.96022727272728 4.984375  Z " fill-rule="nonzero" fill="#ffffff" stroke="none" transform="matrix(1 0 0 1 83 12 )" />
  </g>
</svg>