<?xml version="1.0" encoding="utf-8"?>
<svg version="1.1" xmlns:xlink="http://www.w3.org/1999/xlink" width="18px" height="18px" xmlns="http://www.w3.org/2000/svg">
  <g transform="matrix(1 0 0 1 -602 -558 )">
    <path d="M 18 18  L 15.999999996093761 18  L 11.000000003906239 18  L 11.000000003906239 15.999999996093761  L 15.999999996093761 15.999999996093761  L 15.999999996093761 11.000000003906239  L 18 11.000000003906239  L 18 18  Z M 11.000000003906239 0  L 15.999999996093761 0  L 18 0  L 18 6.999999996093762  L 15.999999996093761 6.999999996093762  L 15.999999996093761 2.0000000039062384  L 11.000000003906239 2.0000000039062384  L 11.000000003906239 0  Z M 2.0000000039062384 11.000000003906239  L 2.0000000039062384 15.999999996093761  L 6.999999996093762 15.999999996093761  L 6.999999996093762 18  L 0 18  L 0 11.000000003906239  L 2.0000000039062384 11.000000003906239  Z M 0 0  L 2.0000000039062384 0  L 6.999999996093762 0  L 6.999999996093762 2.0000000039062384  L 2.0000000039062384 2.0000000039062384  L 2.0000000039062384 6.999999996093762  L 0 6.999999996093762  L 0 0  Z " fill-rule="nonzero" fill="#ffffff" stroke="none" transform="matrix(1 0 0 1 602 558 )" />
  </g>
</svg>