<svg t="1657873473785" class="icon" viewBox="0 0 1024 1024" version="1.1" xmlns="http://www.w3.org/2000/svg" p-id="10775" height="200" width="200"><path d="M290.133333 290.133333h-85.333333a51.2 51.2 0 0 0-51.2 51.2v443.733334a51.2 51.2 0 0 0 51.2 51.2h614.4a51.2 51.2 0 0 0 51.2-51.2V341.333333a51.2 51.2 0 0 0-51.2-51.2h-85.333333a51.2 51.2 0 0 1-48.571734-35.003733l-10.8032-32.392533A51.2 51.2 0 0 0 625.92 187.733333h-227.84a51.2 51.2 0 0 0-48.571733 35.003734l-10.8032 32.392533A51.2 51.2 0 0 1 290.133333 290.133333z m0-51.2l10.786134-32.375466A102.4 102.4 0 0 1 398.08 136.533333h227.84a102.4 102.4 0 0 1 97.160533 70.024534L733.866667 238.933333h85.333333a102.4 102.4 0 0 1 102.4 102.4v443.733334a102.4 102.4 0 0 1-102.4 102.4H204.8a102.4 102.4 0 0 1-102.4-102.4V341.333333a102.4 102.4 0 0 1 102.4-102.4h85.333333z" fill="#0093FF" p-id="10776"></path><path d="M512 725.333333c-98.9696 0-179.2-80.2304-179.2-179.2S413.0304 366.933333 512 366.933333 691.2 447.163733 691.2 546.133333 610.9696 725.333333 512 725.333333z m0-51.2a128 128 0 1 0 0-256 128 128 0 0 0 0 256z" fill="#0093FF" p-id="10777"></path></svg>