<svg t="1658106530254" class="icon" viewBox="0 0 1024 1024" version="1.1" xmlns="http://www.w3.org/2000/svg" p-id="1959" width="16" height="16"><path d="M883.421 927.08c-11.174 0-22.376-4.225-30.884-12.791L677.779 739.531c-17.015-17.045-17.015-44.723 0-61.768 17.044-17.014 44.723-17.014 61.768 0L914.305 852.55c17.014 17.045 17.014 44.725 0 61.738-8.478 8.567-19.652 12.792-30.884 12.792z" fill="#707070" p-id="1960"></path><path d="M468.349 839.641c-204.772 0-371.412-166.609-371.412-371.397 0-204.772 166.64-371.323 371.412-371.323 204.758 0 371.428 166.64 371.428 371.413-0.001 204.758-166.55 371.307-371.428 371.307z m0-655.297c-156.605 0-283.989 127.384-283.989 283.989 0 156.591 127.384 283.989 283.989 283.989 156.59 0 283.988-127.398 283.988-283.989 0-156.605-127.399-283.989-283.988-283.989zM568.196 502.1h-199.71c-14.798 0-26.84-12.027-26.84-26.854v-13.929c0-14.828 12.042-26.855 26.84-26.855h199.74c14.797 0 26.84 12.027 26.84 26.855v13.929c0 14.842-12.043 26.854-26.87 26.854z" fill="#707070" p-id="1961"></path></svg>