<svg t="1658059284699" class="icon" viewBox="0 0 1024 1024" version="1.1" xmlns="http://www.w3.org/2000/svg" p-id="6557" height="200" width="200"><path d="M226.210819 732.42761l50.497041 50.497041 60.605249-60.605249-47.142646-47.091481L226.210819 732.42761zM478.692951 863.751433l67.314038 0 0-97.64071-67.314038 0L478.692951 863.751433zM243.027816 463.12848l-100.994081 0 0 67.313014 100.994081 0L243.027816 463.12848zM613.321027 321.747613 613.321027 160.148283l-201.989185 0 0 161.59933c-60.605249 33.632971-100.994081 100.994081-100.994081 175.012814 0 111.106383 90.882803 201.989185 201.989185 201.989185 111.10229 0 201.985092-90.882803 201.985092-201.989185C714.312038 422.741694 673.925253 355.380585 613.321027 321.747613M781.676218 530.442518l100.991011 0 0-67.313014-100.991011 0L781.676218 530.442518zM687.387856 722.319401l60.604226 60.605249 47.145716-47.092504-60.655391-60.604226L687.387856 722.319401z" p-id="6558" fill="#0093ff"></path></svg>