<?xml version="1.0" encoding="utf-8"?>
<svg version="1.1" xmlns:xlink="http://www.w3.org/1999/xlink" width="14px" height="14px" xmlns="http://www.w3.org/2000/svg">
  <g transform="matrix(1 0 0 1 -9 -10 )">
    <path d="M 2.7158653846155474 2.7158653846153697  C 3.8600961538462215 1.571634615384653  5.381250000000001 0.9423076923077929  7 0.9423076923077929  C 8.618749999999999 0.9423076923077929  10.139903846153786 1.571634615384653  11.28413461538446 2.7158653846153697  C 12.428365384615553 3.8600961538462  13.057692307692434 5.381249999999966  13.057692307692434 7  C 13.057692307692434 8.618750000000034  12.428365384615553 10.1399038461538  11.28413461538446 11.28413461538463  C 10.139903846153786 12.428365384615347  8.618749999999999 13.057692307692207  7 13.057692307692207  C 5.381250000000001 13.057692307692207  3.8600961538462215 12.428365384615347  2.7158653846155474 11.28413461538463  C 1.571634615384454 10.1399038461538  0.9423076923075656 8.618750000000034  0.9423076923075656 7  C 0.9423076923075656 5.381249999999966  1.571634615384454 3.8600961538462  2.7158653846155474 2.7158653846153697  Z M 14 7  C 14 3.1331730769231285  10.866826923076886 0  7 0  C 3.133173076923107 0  0 3.1331730769231285  0 7  C 0 10.866826923076871  3.133173076923107 14  7 14  C 10.866826923076886 14  14 10.866826923076871  14 7  Z " fill-rule="nonzero" fill="#dcdee2" stroke="none" transform="matrix(1 0 0 1 9 10 )" />
  </g>
</svg>