<?xml version="1.0" encoding="utf-8"?>
<svg version="1.1" xmlns:xlink="http://www.w3.org/1999/xlink" width="10px" height="8px" xmlns="http://www.w3.org/2000/svg">
  <defs>
    <mask fill="white" id="clip11">
      <path d="M 9.814453125 0.26388888888891415  C 9.938151041666629 0.43981481481478113  10 0.648148148148266  10 0.8888888888889142  C 10 1.1296296296295623  9.938151041666629 1.3379629629630472  9.814453125 1.5138888888889142  L 5.439453125 7.736111111111086  C 5.315755208333371 7.912037037036953  5.169270833333371 8  5 8  C 4.830729166666629 8  4.684244791666629 7.912037037036953  4.560546875 7.736111111111086  L 0.185546875 1.5138888888889142  C 0.06184895833337123 1.3379629629630472  0 1.1296296296295623  0 0.8888888888889142  C 0 0.648148148148266  0.06184895833337123 0.43981481481478113  0.185546875 0.26388888888891415  C 0.30924479166662877 0.08796296296304718  0.45572916666662877 0  0.625 0  L 9.375 0  C 9.544270833333371 0  9.690755208333371 0.08796296296304718  9.814453125 0.26388888888891415  Z " fill-rule="evenodd" />
    </mask>
  </defs>
  <g transform="matrix(1 0 0 1 -154 -13 )">
    <path d="M 9.814453125 0.26388888888891415  C 9.938151041666629 0.43981481481478113  10 0.648148148148266  10 0.8888888888889142  C 10 1.1296296296295623  9.938151041666629 1.3379629629630472  9.814453125 1.5138888888889142  L 5.439453125 7.736111111111086  C 5.315755208333371 7.912037037036953  5.169270833333371 8  5 8  C 4.830729166666629 8  4.684244791666629 7.912037037036953  4.560546875 7.736111111111086  L 0.185546875 1.5138888888889142  C 0.06184895833337123 1.3379629629630472  0 1.1296296296295623  0 0.8888888888889142  C 0 0.648148148148266  0.06184895833337123 0.43981481481478113  0.185546875 0.26388888888891415  C 0.30924479166662877 0.08796296296304718  0.45572916666662877 0  0.625 0  L 9.375 0  C 9.544270833333371 0  9.690755208333371 0.08796296296304718  9.814453125 0.26388888888891415  Z " fill-rule="nonzero" fill="#666666" stroke="none" transform="matrix(1 0 0 1 154 13 )" />
    <path d="M 9.814453125 0.26388888888891415  C 9.938151041666629 0.43981481481478113  10 0.648148148148266  10 0.8888888888889142  C 10 1.1296296296295623  9.938151041666629 1.3379629629630472  9.814453125 1.5138888888889142  L 5.439453125 7.736111111111086  C 5.315755208333371 7.912037037036953  5.169270833333371 8  5 8  C 4.830729166666629 8  4.684244791666629 7.912037037036953  4.560546875 7.736111111111086  L 0.185546875 1.5138888888889142  C 0.06184895833337123 1.3379629629630472  0 1.1296296296295623  0 0.8888888888889142  C 0 0.648148148148266  0.06184895833337123 0.43981481481478113  0.185546875 0.26388888888891415  C 0.30924479166662877 0.08796296296304718  0.45572916666662877 0  0.625 0  L 9.375 0  C 9.544270833333371 0  9.690755208333371 0.08796296296304718  9.814453125 0.26388888888891415  Z " stroke-width="2" stroke="#e4e4e4" fill="none" transform="matrix(1 0 0 1 154 13 )" mask="url(#clip11)" />
  </g>
</svg>