<?xml version="1.0" standalone="no"?><!DOCTYPE svg PUBLIC "-//W3C//DTD SVG 1.1//EN" "http://www.w3.org/Graphics/SVG/1.1/DTD/svg11.dtd"><svg t="1611624421831" class="icon" viewBox="0 0 1024 1024" version="1.1" xmlns="http://www.w3.org/2000/svg" p-id="3822" width="18" height="18" xmlns:xlink="http://www.w3.org/1999/xlink"><defs><style type="text/css"></style></defs><path d="M960 773.4V848c0 20.5-16.9 37.3-37.3 37.3H101.3C80.9 885.3 64 868.4 64 848v-74.7c0-20.5 16.9-37.3 37.3-37.3h821.4c20.4 0 37.3 17 37.3 37.4z m0-298.7v74.7c0 20.5-16.9 37.3-37.3 37.3H101.3c-20.5 0-37.3-16.9-37.3-37.3v-74.7c0-20.5 16.9-37.3 37.3-37.3h821.4c20.4 0 37.3 16.9 37.3 37.3z m0-298.7v74.7c0 20.5-16.9 37.3-37.3 37.3H101.3C80.9 288 64 271 64 250.6V176c0-20.5 16.9-37.3 37.3-37.3h821.4c20.4 0 37.3 16.9 37.3 37.3z" p-id="3823" fill="#ffffff"></path></svg>