<?xml version="1.0" standalone="no"?><!DOCTYPE svg PUBLIC "-//W3C//DTD SVG 1.1//EN" "http://www.w3.org/Graphics/SVG/1.1/DTD/svg11.dtd"><svg t="1611555164064" class="icon" viewBox="0 0 1024 1024" version="1.1" xmlns="http://www.w3.org/2000/svg" p-id="44376" width="18" height="18" xmlns:xlink="http://www.w3.org/1999/xlink"><defs><style type="text/css"></style></defs><path d="M895.32416 511.8976c0 142.336 0 284.65152 0 426.98752 0 16.01536-4.9152 20.97152-20.6848 20.97152-230.4 0-460.77952 0-691.15904-0.02048-28.24192 0-49.68448-17.57184-54.12864-44.35968-0.57344-3.50208-0.63488-7.10656-0.63488-10.67008-0.04096-261.91872-0.04096-523.83744 0-785.77664 0-32.256 22.69184-54.86592 55.05024-54.86592 230.76864-0.02048 461.5168-0.02048 692.28544 0 13.63968 0 19.2512 5.71392 19.2512 19.64032C895.32416 226.5088 895.30368 369.21344 895.32416 511.8976zM256.59392 832.08192c2.80576 0 5.2224 0 7.61856 0 115.83488 0 231.69024 0 347.50464 0 70.98368 0 141.96736-0.08192 212.91008 0.16384 5.91872 0.02048 7.168-1.72032 7.04512-7.24992-0.34816-16.6912-0.32768-33.42336 0-50.13504 0.1024-5.24288-1.16736-7.00416-6.73792-7.00416-187.35104 0.16384-374.74304 0.12288-562.09408 0.14336-2.00704 0-3.9936 0.18432-6.2464 0.3072C256.59392 789.56544 256.59392 810.33216 256.59392 832.08192zM448.43008 320.36864c-0.12288 2.1504-0.28672 3.9936-0.28672 5.81632-0.04096 38.48192 0.08192 76.94336-0.14336 115.42528-0.02048 5.24288 1.47456 6.5536 6.61504 6.5536 80.87552-0.16384 161.75104-0.1024 242.64704-0.12288 2.00704 0 3.9936-0.2048 6.08256-0.32768 0-42.76224 0-84.91008 0-127.36512C618.3936 320.36864 533.79072 320.36864 448.43008 320.36864z" p-id="44377" fill="#ffffff"></path></svg>