<?xml version="1.0" standalone="no"?><!DOCTYPE svg PUBLIC "-//W3C//DTD SVG 1.1//EN" "http://www.w3.org/Graphics/SVG/1.1/DTD/svg11.dtd"><svg t="1611555094621" class="icon" viewBox="0 0 1024 1024" version="1.1" xmlns="http://www.w3.org/2000/svg" p-id="41876" width="18" height="18" xmlns:xlink="http://www.w3.org/1999/xlink"><defs><style type="text/css"></style></defs><path d="M56.888889 113.777778m56.888889 0l284.444444 0q56.888889 0 56.888889 56.888889l0 284.444444q0 56.888889-56.888889 56.888889l-284.444444 0q-56.888889 0-56.888889-56.888889l0-284.444444q0-56.888889 56.888889-56.888889Z" p-id="41877" fill="#ffffff"></path><path d="M540.444444 113.777778m56.888889 0l284.444445 0q56.888889 0 56.888889 56.888889l0 284.444444q0 56.888889-56.888889 56.888889l-284.444445 0q-56.888889 0-56.888889-56.888889l0-284.444444q0-56.888889 56.888889-56.888889Z" p-id="41878" fill="#ffffff"></path><path d="M56.888889 568.888889m56.888889 0l284.444444 0q56.888889 0 56.888889 56.888889l0 284.444444q0 56.888889-56.888889 56.888889l-284.444444 0q-56.888889 0-56.888889-56.888889l0-284.444444q0-56.888889 56.888889-56.888889Z" p-id="41879" fill="#ffffff"></path><path d="M540.444444 568.888889m56.888889 0l284.444445 0q56.888889 0 56.888889 56.888889l0 284.444444q0 56.888889-56.888889 56.888889l-284.444445 0q-56.888889 0-56.888889-56.888889l0-284.444444q0-56.888889 56.888889-56.888889Z" p-id="41880" fill="#ffffff"></path></svg>