<?xml version="1.0" standalone="no"?><!DOCTYPE svg PUBLIC "-//W3C//DTD SVG 1.1//EN" "http://www.w3.org/Graphics/SVG/1.1/DTD/svg11.dtd"><svg t="1611554630852" class="icon" viewBox="0 0 1024 1024" version="1.1" xmlns="http://www.w3.org/2000/svg" p-id="28169" width="18" height="18" xmlns:xlink="http://www.w3.org/1999/xlink"><defs><style type="text/css"></style></defs><path d="M772.3 184.9v-53.4c0-36.1-29.5-65.6-65.6-65.6H132.2c-36.1 0-65.6 29.5-65.6 65.6V706c0 36.1 29.5 65.6 65.6 65.6h86.9V239.3c0-29.9 24.5-54.4 54.4-54.4h498.8z" p-id="28170" fill="#ffffff"></path><path d="M907.5 201.9H295.6c-28.9 0-52.6 23.7-52.6 52.6v611.9c0 28.9 23.7 52.6 52.6 52.6h611.9c28.9 0 52.6-23.7 52.6-52.6V254.5c0-28.9-23.7-52.6-52.6-52.6z" p-id="28171" fill="#ffffff"></path></svg>