<?xml version="1.0" standalone="no"?><!DOCTYPE svg PUBLIC "-//W3C//DTD SVG 1.1//EN" "http://www.w3.org/Graphics/SVG/1.1/DTD/svg11.dtd"><svg t="1611555423981" class="icon" viewBox="0 0 1024 1024" version="1.1" xmlns="http://www.w3.org/2000/svg" p-id="54015" width="18" height="18" xmlns:xlink="http://www.w3.org/1999/xlink"><defs><style type="text/css"></style></defs><path d="M511.4 64.1c-247.3 0-447.7 200.5-447.7 447.7s200.5 447.7 447.7 447.7S959.1 759 959.1 511.8 758.6 64.1 511.4 64.1z m0 183.4c35.4 0 64.1 28.7 64.1 64.1 0 35.4-28.7 64.1-64.1 64.1-35.4 0-64.1-28.7-64.1-64.1 0-35.4 28.7-64.1 64.1-64.1z m96.1 528.7H415.2v-32h32V455.8h-32v-32h160.2v320.4h32v32z" p-id="54016" fill="#ffffff"></path></svg>