<?xml version="1.0" standalone="no"?><!DOCTYPE svg PUBLIC "-//W3C//DTD SVG 1.1//EN" "http://www.w3.org/Graphics/SVG/1.1/DTD/svg11.dtd"><svg t="1611563462730" class="icon" viewBox="0 0 1024 1024" version="1.1" xmlns="http://www.w3.org/2000/svg" p-id="3653" width="18" height="18" xmlns:xlink="http://www.w3.org/1999/xlink"><defs><style type="text/css"></style></defs><path d="M488 76.8A441.344 441.344 0 0 0 47.104 517.696a441.344 441.344 0 0 0 440.96 440.896 441.344 441.344 0 0 0 440.896-440.96A441.344 441.344 0 0 0 488 76.8z m39.68 671.616A56.32 56.32 0 0 1 488 764.288h-0.96a56.32 56.32 0 0 1-40.128-16.384 56.32 56.32 0 0 1-16.384-40.128c0-16.384 5.76-29.568 16.896-40.128 10.048-10.56 23.744-15.872 40.128-15.872h13.76v1.6a49.6 49.6 0 0 1 26.88 14.272 54.528 54.528 0 0 1 16.384 40.128c0 15.808-5.76 29.568-16.896 40.64z m82.88-243.968c-3.712 4.8-13.248 14.272-51.776 48.064a85.504 85.504 0 0 0-21.632 26.944 68.8 68.8 0 0 0-7.936 33.28v23.744h-90.88v-23.744c0-25.344 4.288-45.952 13.248-62.848 8.96-17.92 31.168-42.752 69.76-76.032l9.472-10.56a54.272 54.272 0 0 0 13.696-34.88c0-16.896-4.736-30.08-13.696-39.552-8.96-8.96-22.72-13.76-40.704-13.76-22.144 0-38.016 6.4-46.976 19.52-8.96 12.16-13.696 29.568-13.696 52.8v13.76h-89.792V447.36c0-46.464 13.76-84.48 41.216-111.936 27.456-27.968 65.984-42.24 113.536-42.24 41.664 0 76.032 11.648 101.888 34.88 26.88 23.232 40.128 55.424 39.616 95.552 0 31.68-8.448 59.136-25.344 80.768z" fill="#ffffff" p-id="3654"></path></svg>