<?xml version="1.0" encoding="utf-8"?>
<svg version="1.1" xmlns:xlink="http://www.w3.org/1999/xlink" width="10px" height="8px" xmlns="http://www.w3.org/2000/svg">
  <g transform="matrix(1 0 0 1 -149 -296 )">
    <path d="M 2.899938461538458 7.111628282828278  L 0.1902769230769188 4.356137373737354  C 0.06818461538462017 4.2320161616161585  0.04652307692308355 4.0375595959595785  0.1567999999999934 3.8968888888888813  L 0.4108307692307669 3.5721050505050442  C 0.5152000000000037 3.4397090909090906  0.7081846153846136 3.40454141414142  0.8460307692307758 3.4976323232323097  L 3.0377846153846164 4.987086868686845  C 3.1539692307692277 5.0656969696969725  3.3528615384615392 5.055353535353532  3.46116923076924 4.966400000000007  L 9.252676923076926 0.1835959595959764  C 9.38264615384615 0.07602424242425343  9.587446153846148 0.08429898989899698  9.701661538461547 0.20221414141414584  L 9.843446153846159 0.3470222222222219  C 9.96750769230768 0.4732121212121143  9.95766153846153 0.6738747474747413  9.82769230769231 0.8062707070707233  L 3.6108307692307626 7.1261090909090825  C 3.4178461538461526 7.322634343434331  3.0988307692307657 7.314359595959573  2.899938461538458 7.111628282828278  Z " fill-rule="nonzero" fill="#c8c9cc" stroke="none" transform="matrix(1 0 0 1 149 296 )" />
  </g>
</svg>