<?xml version="1.0" encoding="utf-8"?>
<svg version="1.1" xmlns:xlink="http://www.w3.org/1999/xlink" width="16px" height="16px" xmlns="http://www.w3.org/2000/svg">
  <g transform="matrix(1 0 0 1 -149 -9 )">
    <path d="M 5.7159090909090935 6.09375  C 5.7840909090909065 6.15625  5.818181818181813 6.236111111111111  5.818181818181813 6.333333333333336  L 5.818181818181813 12.333333333333336  C 5.818181818181813 12.430555555555557  5.7840909090909065 12.510416666666664  5.7159090909090935 12.572916666666664  C 5.6477272727272805 12.635416666666664  5.560606060606062 12.666666666666664  5.4545454545454675 12.666666666666664  L 4.7272727272727195 12.666666666666664  C 4.621212121212125 12.666666666666664  4.5340909090909065 12.635416666666664  4.4659090909090935 12.572916666666664  C 4.3977272727272805 12.510416666666664  4.363636363636374 12.430555555555557  4.363636363636374 12.333333333333336  L 4.363636363636374 6.333333333333336  C 4.363636363636374 6.236111111111111  4.3977272727272805 6.15625  4.4659090909090935 6.09375  C 4.5340909090909065 6.03125  4.621212121212125 6  4.7272727272727195 6  L 5.4545454545454675 6  C 5.560606060606062 6  5.6477272727272805 6.03125  5.7159090909090935 6.09375  Z M 8.625 6.09375  C 8.693181818181813 6.15625  8.72727272727272 6.236111111111111  8.72727272727272 6.333333333333336  L 8.72727272727272 12.333333333333336  C 8.72727272727272 12.430555555555557  8.693181818181813 12.510416666666664  8.625 12.572916666666664  C 8.556818181818187 12.635416666666664  8.469696969696969 12.666666666666664  8.363636363636374 12.666666666666664  L 7.636363636363626 12.666666666666664  C 7.530303030303031 12.666666666666664  7.443181818181813 12.635416666666664  7.375 12.572916666666664  C 7.306818181818187 12.510416666666664  7.2727272727272805 12.430555555555557  7.2727272727272805 12.333333333333336  L 7.2727272727272805 6.333333333333336  C 7.2727272727272805 6.236111111111111  7.306818181818187 6.15625  7.375 6.09375  C 7.443181818181813 6.03125  7.530303030303031 6  7.636363636363626 6  L 8.363636363636374 6  C 8.469696969696969 6  8.556818181818187 6.03125  8.625 6.09375  Z M 11.534090909090907 6.09375  C 11.60227272727272 6.15625  11.636363636363626 6.236111111111111  11.636363636363626 6.333333333333336  L 11.636363636363626 12.333333333333336  C 11.636363636363626 12.430555555555557  11.60227272727272 12.510416666666664  11.534090909090907 12.572916666666664  C 11.465909090909093 12.635416666666664  11.378787878787875 12.666666666666664  11.27272727272728 12.666666666666664  L 10.545454545454533 12.666666666666664  C 10.439393939393938 12.666666666666664  10.35227272727272 12.635416666666664  10.284090909090907 12.572916666666664  C 10.215909090909093 12.510416666666664  10.181818181818187 12.430555555555557  10.181818181818187 12.333333333333336  L 10.181818181818187 6.333333333333336  C 10.181818181818187 6.236111111111111  10.215909090909093 6.15625  10.284090909090907 6.09375  C 10.35227272727272 6.03125  10.439393939393938 6  10.545454545454533 6  L 11.27272727272728 6  C 11.378787878787875 6  11.465909090909093 6.03125  11.534090909090907 6.09375  Z M 13.011363636363626 14.296875  C 13.064393939393938 14.168402777777779  13.090909090909093 14.027777777777779  13.090909090909093 13.875  L 13.090909090909093 4  L 2.9090909090909065 4  L 2.9090909090909065 13.875  C 2.9090909090909065 14.027777777777779  2.9356060606060623 14.168402777777779  2.988636363636374 14.296875  C 3.041666666666657 14.425347222222221  3.0965909090909065 14.519097222222221  3.1534090909090935 14.578125  C 3.2102272727272805 14.637152777777779  3.25 14.666666666666664  3.2727272727272805 14.666666666666664  L 12.72727272727272 14.666666666666664  C 12.75 14.666666666666664  12.78977272727272 14.637152777777779  12.846590909090907 14.578125  C 12.903409090909093 14.519097222222221  12.958333333333343 14.425347222222221  13.011363636363626 14.296875  Z M 6.011363636363626 1.4479166666666679  L 5.4545454545454675 2.6666666666666643  L 10.545454545454533 2.6666666666666643  L 10 1.4479166666666679  C 9.946969696969688 1.3854166666666679  9.88257575757575 1.3472222222222214  9.806818181818187 1.3333333333333321  L 6.2045454545454675 1.3333333333333321  C 6.128787878787875 1.3472222222222214  6.064393939393938 1.3854166666666679  6.011363636363626 1.4479166666666679  Z M 15.89772727272728 2.7604166666666643  C 15.965909090909093 2.8229166666666643  16 2.902777777777775  16 3  L 16 3.6666666666666643  C 16 3.7638888888888857  15.965909090909093 3.84375  15.89772727272728 3.90625  C 15.829545454545467 3.96875  15.74242424242425 4  15.636363636363626 4  L 14.545454545454533 4  L 14.545454545454533 13.875  C 14.545454545454533 14.451388888888886  14.36742424242425 14.949652777777779  14.011363636363626 15.369791666666664  C 13.655303030303031 15.789930555555557  13.22727272727272 16  12.72727272727272 16  L 3.2727272727272805 16  C 2.7727272727272805 16  2.344696969696969 15.796875  1.988636363636374 15.390625  C 1.6325757575757507 14.984375  1.4545454545454675 14.493055555555557  1.4545454545454675 13.916666666666664  L 1.4545454545454675 4  L 0.36363636363637397 4  C 0.2575757575757507 4  0.17045454545453254 3.96875  0.10227272727271952 3.90625  C 0.03409090909090651 3.84375  0 3.7638888888888857  0 3.6666666666666643  L 0 3  C 0 2.902777777777775  0.03409090909090651 2.8229166666666643  0.10227272727271952 2.7604166666666643  C 0.17045454545453254 2.6979166666666643  0.2575757575757507 2.6666666666666643  0.36363636363637397 2.6666666666666643  L 3.875 2.6666666666666643  L 4.6704545454545325 0.9270833333333321  C 4.7840909090909065 0.6701388888888857  4.988636363636374 0.4513888888888893  5.2840909090909065 0.27083333333333215  C 5.5795454545454675 0.09027777777777857  5.878787878787875 0  6.181818181818187 0  L 9.818181818181813 0  C 10.121212121212125 0  10.420454545454533 0.09027777777777857  10.715909090909093 0.27083333333333215  C 11.011363636363626 0.4513888888888893  11.215909090909093 0.6701388888888857  11.329545454545467 0.9270833333333321  L 12.125 2.6666666666666643  L 15.636363636363626 2.6666666666666643  C 15.74242424242425 2.6666666666666643  15.829545454545467 2.6979166666666643  15.89772727272728 2.7604166666666643  Z " fill-rule="nonzero" fill="#666666" stroke="none" transform="matrix(1 0 0 1 149 9 )" />
  </g>
</svg>