<?xml version="1.0" encoding="utf-8"?>
<svg version="1.1" xmlns:xlink="http://www.w3.org/1999/xlink" width="7px" height="4px" xmlns="http://www.w3.org/2000/svg">
  <g transform="matrix(1 0 0 1 -36 -8 )">
    <path d="M 0.8520833333333542 0.22653061224491466  L 3.5 2.8183673469387713  L 6.145833333333343 0.22448979591835183  C 6.341666666666669 0.032653061224472424  6.658333333333331 0.032653061224472424  6.852083333333326 0.22448979591835183  C 7.0458333333333485 0.41632653061223124  7.0458333333333485 0.7265306122449147  6.852083333333326 0.9183673469387941  L 3.8541666666666856 3.857142857142854  C 3.6645833333333258 4.042857142857123  3.36041666666668 4.046938775510206  3.1645833333333258 3.871428571428588  L 0.14583333333331439 0.9204081632653143  C 0.04791666666667993 0.8244897959183746  0 0.6979591836734826  0 0.573469387755118  C 0 0.4489795918367463  0.04791666666667993 0.32244897959185437  0.14583333333331439 0.22653061224491466  C 0.34166666666666856 0.03469387755103526  0.6583333333333314 0.03469387755103526  0.8520833333333542 0.22653061224491466  Z " fill-rule="nonzero" fill="#2d8cf0" stroke="none" transform="matrix(1 0 0 1 36 8 )" />
  </g>
</svg>