<?xml version="1.0" encoding="utf-8"?>
<svg version="1.1" xmlns:xlink="http://www.w3.org/1999/xlink" width="16px" height="16px" xmlns="http://www.w3.org/2000/svg">
  <g transform="matrix(1 0 0 1 -1231 -1048 )">
    <path d="M 15.968992248062023 8  C 15.968992248062023 7.454263565891466  15.522480620155065 7.007751937984466  14.976744186046517 7.007751937984466  L 8.992248062015506 7.007751937984466  L 8.992248062015506 1.0232558139535115  C 8.992248062015506 0.4775193798449493  8.545736434108534 0.031007751937977446  8 0.031007751937977446  C 7.454263565891466 0.031007751937977446  7.007751937984494 0.4775193798449493  7.007751937984494 1.0232558139535115  L 7.007751937984494 7.007751937984466  L 1.023255813953483 7.007751937984466  C 0.4775193798449493 7.007751937984466  0.031007751937977446 7.454263565891466  0.031007751937977446 8  C 0.031007751937977446 8.272868217054253  0.14263565891472751 8.520930232558129  0.32248062015504786 8.700775193798421  C 0.5023255813953398 8.880620155038741  0.7503875968992304 8.992248062015534  1.023255813953483 8.992248062015534  L 7.007751937984494 8.992248062015534  L 7.007751937984494 14.976744186046488  C 7.007751937984494 15.249612403100713  7.119379844961244 15.497674418604618  7.299224806201536 15.677519379844938  C 7.479069767441857 15.85736434108523  7.727131782945747 15.968992248062023  8 15.968992248062023  C 8.545736434108534 15.968992248062023  8.992248062015506 15.52248062015505  8.992248062015506 14.976744186046488  L 8.992248062015506 8.992248062015534  L 14.976744186046517 8.992248062015534  C 15.522480620155065 8.992248062015534  15.968992248062023 8.545736434108534  15.968992248062023 8  Z " fill-rule="nonzero" fill="#ffffff" stroke="none" transform="matrix(1 0 0 1 1231 1048 )" />
  </g>
</svg>