<?xml version="1.0" encoding="utf-8"?>
<svg version="1.1" xmlns:xlink="http://www.w3.org/1999/xlink" width="143px" height="77px" xmlns="http://www.w3.org/2000/svg">
  <g>
    <path d="M 1 2  A 1 1 0 0 1 1.9999999999999998 1 L 141 1  A 1 1 0 0 1 142 2 L 142 75  A 1 1 0 0 1 141 76 L 2 76  A 1 1 0 0 1 1 75 L 1 2  Z " fill-rule="nonzero" fill="#ffffff" stroke="none" />
    <path d="M 0.5 2.0000000000000004  A 1.5 1.5 0 0 1 1.9999999999999996 0.5 L 141 0.5  A 1.5 1.5 0 0 1 142.5 2 L 142.5 75  A 1.5 1.5 0 0 1 141 76.5 L 2 76.5  A 1.5 1.5 0 0 1 0.5 75 L 0.5 2  Z " stroke-width="1" stroke="#e8eaec" fill="none" stroke-opacity="0.8" />
  </g>
</svg>