<?xml version="1.0" encoding="utf-8"?>
<svg version="1.1" xmlns:xlink="http://www.w3.org/1999/xlink" width="8px" height="7px" xmlns="http://www.w3.org/2000/svg">
  <g transform="matrix(1 0 0 1 -547 -37 )">
    <path d="M 0.9738095238095477 0.39642857142860066  L 4 4.93214285714285  L 7.023809523809534 0.3928571428571157  C 7.247619047619049 0.05714285714282674  7.609523809523807 0.05714285714282674  7.830952380952373 0.3928571428571157  C 8.05238095238097 0.7285714285714047  8.05238095238097 1.2714285714286007  7.830952380952373 1.6071428571428896  L 4.404761904761926 6.749999999999995  C 4.188095238095229 7.0749999999999655  3.8404761904762057 7.082142857142861  3.616666666666658 6.775000000000029  L 0.166666666666645 1.6107142857143  C 0.05476190476191992 1.4428571428571555  0 1.2214285714285946  0 1.0035714285714565  C 0 0.785714285714306  0.05476190476191992 0.5642857142857451  0.166666666666645 0.39642857142860066  C 0.39047619047619264 0.0607142857143117  0.7523809523809503 0.0607142857143117  0.9738095238095477 0.39642857142860066  Z " fill-rule="nonzero" fill="#ffffff" stroke="none" transform="matrix(1 0 0 1 547 37 )" />
  </g>
</svg>