<?xml version="1.0" encoding="utf-8"?>
<svg version="1.1" xmlns:xlink="http://www.w3.org/1999/xlink" width="18px" height="18px" xmlns="http://www.w3.org/2000/svg">
  <g transform="matrix(1 0 0 1 -393 31 )">
    <path d="M 393.5 -30  A 0.5 0.5 0 0 1 394 -30.5 L 410 -30.5  A 0.5 0.5 0 0 1 410.5 -30 L 410.5 -14  A 0.5 0.5 0 0 1 410 -13.5 L 394 -13.5  A 0.5 0.5 0 0 1 393.5 -14 L 393.5 -30  Z " fill-rule="nonzero" fill="#ffffff" stroke="none" />
    <path d="M 393.5 -30  A 0.5 0.5 0 0 1 394 -30.5 L 410 -30.5  A 0.5 0.5 0 0 1 410.5 -30 L 410.5 -14  A 0.5 0.5 0 0 1 410 -13.5 L 394 -13.5  A 0.5 0.5 0 0 1 393.5 -14 L 393.5 -30  Z " stroke-width="1" stroke="#dcdee2" fill="none" />
  </g>
</svg>