<?xml version="1.0" encoding="utf-8"?>
<svg version="1.1" xmlns:xlink="http://www.w3.org/1999/xlink" width="8px" height="5px" xmlns="http://www.w3.org/2000/svg">
  <g transform="matrix(1 0 0 1 -380 24 )">
    <path d="M 0.9738095238095212 0.2642857142857338  L 4 3.288095238095252  L 7.023809523809518 0.2619047619047592  C 7.247619047619054 0.03809523809525217  7.609523809523807 0.03809523809525217  7.830952380952382 0.2619047619047592  C 8.052380952380958 0.4857142857142662  8.052380952380958 0.8476190476190482  7.830952380952382 1.0714285714285552  L 4.404761904761898 4.5  C 4.188095238095244 4.716666666666697  3.8404761904761955 4.721428571428589  3.61666666666666 4.516666666666708  L 0.1666666666666714 1.0738095238095298  C 0.05476190476190368 0.9619047619047478  0 0.8142857142857451  0 0.6690476190476033  C 0 0.5238095238095184  0.05476190476190368 0.37619047619045887  0.1666666666666714 0.2642857142857338  C 0.39047619047619264 0.040476190476169904  0.7523809523809462 0.040476190476169904  0.9738095238095212 0.2642857142857338  Z " fill-rule="nonzero" fill="#515a6e" stroke="none" transform="matrix(1 0 0 1 380 -24 )" />
  </g>
</svg>