<?xml version="1.0" encoding="utf-8"?>
<svg version="1.1" xmlns:xlink="http://www.w3.org/1999/xlink" width="58px" height="33px" xmlns="http://www.w3.org/2000/svg">
  <g transform="matrix(1 0 0 1 -1032 -4364 )">
    <path d="M 1089 4370.6  C 1089 4370.6  1089 4390.4  1089 4390.4  C 1089 4393.968551724138  1074.779393939394 4396  1061 4396  C 1047.220606060606 4396  1033 4393.968551724138  1033 4390.4  C 1033 4390.4  1033 4370.6  1033 4370.6  C 1033 4367.031448275862  1047.220606060606 4365  1061 4365  C 1074.779393939394 4365  1089 4367.031448275862  1089 4370.6  Z " fill-rule="nonzero" fill="#1ec695" stroke="none" />
    <path d="M 1032.5 4370.9  C 1032.5 4367.316  1045.04 4364.5  1061 4364.5  C 1076.96 4364.5  1089.5 4367.316  1089.5 4370.9  C 1089.5 4370.9  1089.5 4390.1  1089.5 4390.1  C 1089.5 4393.684  1076.96 4396.5  1061 4396.5  C 1045.04 4396.5  1032.5 4393.684  1032.5 4390.1  C 1032.5 4390.1  1032.5 4370.9  1032.5 4370.9  Z " stroke-width="1" stroke-dasharray="1,1" stroke="#ffffff" fill="none" stroke-dashoffset="0.5" />
    <path d="M 1089.5 4370.6  C 1089.5 4374.016  1076.96 4376.7  1061 4376.7  C 1045.04 4376.7  1032.5 4374.016  1032.5 4370.6  " stroke-width="1" stroke-dasharray="1,1" stroke="#ffffff" fill="none" stroke-dashoffset="0.5" />
  </g>
</svg>