<?xml version="1.0" encoding="utf-8"?>
<svg version="1.1" xmlns:xlink="http://www.w3.org/1999/xlink" width="12px" height="15px" xmlns="http://www.w3.org/2000/svg">
  <g transform="matrix(1 0 0 1 -548 -361 )">
    <path d="M 11.538461538461547 4.903846153846189  C 11.538461538461547 4.110576923077133  10.889423076923094 3.4615384615385665  10.096153846153868 3.4615384615385665  L 6.237980769230774 3.4615384615385665  L 6.237980769230774 9.948317307692378  L 7.965144230769226 8.246394230769056  C 8.149038461538453 8.066105769230944  8.444711538461547 8.066105769230944  8.628605769230774 8.25  C 8.808894230769226 8.433894230769056  8.808894230769226 8.729567307692378  8.625 8.913461538461434  L 6.100961538461547 11.401442307692378  C 6.010817307692321 11.487980769230944  5.891826923076906 11.534855769230944  5.772836538461547 11.534855769230944  C 5.711538461538453 11.534855769230944  5.650240384615358 11.524038461538566  5.592548076923094 11.498798076922867  C 5.538461538461547 11.477163461538566  5.487980769230774 11.441105769230944  5.444711538461547 11.401442307692378  L 2.9206730769230944 8.913461538461434  C 2.736778846153868 8.733173076922867  2.7331730769230944 8.433894230769056  2.917067307692321 8.25  C 3.0973557692307736 8.066105769230944  3.3966346153846416 8.0625  3.580528846153868 8.246394230769056  L 5.307692307692321 9.948317307692378  L 5.307692307692321 3.4615384615385665  L 1.4423076923076792 3.4615384615385665  C 0.6490384615384528 3.4615384615385665  0 4.110576923077133  0 4.903846153846189  L 0 13.557692307692378  C 0 14.350961538461434  0.6490384615384528 15  1.4423076923076792 15  L 10.096153846153868 15  C 10.889423076923094 15  11.538461538461547 14.350961538461434  11.538461538461547 13.557692307692378  L 11.538461538461547 4.903846153846189  Z M 6.237980769230774 3.4615384615385665  L 6.237980769230774 0.46875  C 6.237980769230774 0.2091346153847553  6.028846153846132 0  5.769230769230774 0  C 5.509615384615415 0  5.300480769230774 0.2091346153847553  5.300480769230774 0.46875  L 5.300480769230774 3.4615384615385665  L 6.237980769230774 3.4615384615385665  Z " fill-rule="nonzero" fill="#1989fa" stroke="none" transform="matrix(1 0 0 1 548 361 )" />
  </g>
</svg>