<?xml version="1.0" encoding="utf-8"?>
<svg version="1.1" xmlns:xlink="http://www.w3.org/1999/xlink" width="13px" height="15px" xmlns="http://www.w3.org/2000/svg">
  <g transform="matrix(1 0 0 1 -861 -361 )">
    <path d="M 12.076704545454545 2.5  L 0.6970880681818181 2.5  L 1.7865767045454544 13.85546875  C 1.7865767045454544 14.48828125  2.3913352272727275 15  3.1392045454545454 15  L 9.6484375 15  C 10.396306818181818 15  11.00106534090909 14.48828125  11.00106534090909 13.85546875  L 12.076704545454545 2.5  Z M 4.404119318181818 12.8515625  L 3.5408380681818183 12.8515625  L 3.231534090909091 3.75  L 4.085582386363637 3.75  L 4.404119318181818 12.8515625  Z M 6.78622159090909 3.75  L 6.78622159090909 12.8515625  L 5.955255681818182 12.8515625  L 5.955255681818182 3.75  L 6.78622159090909 3.75  Z M 9.509943181818182 3.75  L 9.200639204545455 12.8515625  L 8.341974431818182 12.8515625  L 8.655894886363637 3.75  L 9.509943181818182 3.75  Z M 12.741477272727273 2.109375  C 12.741477272727273 1.421875  12.16903409090909 1.09375  11.35653409090909 1.09375  L 9.694602272727273 1.09375  L 8.48046875 0.1953125  C 8.30965909090909 0.0703125  8.09268465909091 0  7.87109375 0  L 4.8796164772727275 0  C 4.653409090909091 0  4.431818181818182 0.0703125  4.2610085227272725 0.1953125  L 3.046875 1.09375  L 1.3849431818181819 1.09375  C 0.5724431818181819 1.09375  0 1.421875  0 2.109375  L 12.741477272727273 2.109375  Z " fill-rule="nonzero" fill="#707070" stroke="none" transform="matrix(1 0 0 1 861 361 )" />
  </g>
</svg>