<?xml version="1.0" encoding="utf-8"?>
<svg version="1.1" xmlns:xlink="http://www.w3.org/1999/xlink" width="153px" height="87px" xmlns="http://www.w3.org/2000/svg">
  <defs>
    <filter x="-5px" y="-5px" width="153px" height="87px" filterUnits="userSpaceOnUse" id="filter24">
      <feOffset dx="0" dy="0" in="SourceAlpha" result="shadowOffsetInner" />
      <feGaussianBlur stdDeviation="2.5" in="shadowOffsetInner" result="shadowGaussian" />
      <feComposite in2="shadowGaussian" operator="atop" in="SourceAlpha" result="shadowComposite" />
      <feColorMatrix type="matrix" values="0 0 0 0 0.5019607843137255  0 0 0 0 0.5254901960784314  0 0 0 0 0.5843137254901961  0 0 0 0.34901960784313724 0  " in="shadowComposite" />
    </filter>
    <g id="widget25">
      <path d="M 1 2  A 1 1 0 0 1 1.9999999999999998 1 L 141 1  A 1 1 0 0 1 142 2 L 142 75  A 1 1 0 0 1 141 76 L 2 76  A 1 1 0 0 1 1 75 L 1 2  Z " fill-rule="nonzero" fill="#ffffff" stroke="none" />
      <path d="M 0.5 2.0000000000000004  A 1.5 1.5 0 0 1 1.9999999999999996 0.5 L 141 0.5  A 1.5 1.5 0 0 1 142.5 2 L 142.5 75  A 1.5 1.5 0 0 1 141 76.5 L 2 76.5  A 1.5 1.5 0 0 1 0.5 75 L 0.5 2  Z " stroke-width="1" stroke="#e8eaec" fill="none" stroke-opacity="0.8" />
    </g>
  </defs>
  <g transform="matrix(1 0 0 1 5 5 )">
    <use xlink:href="#widget25" filter="url(#filter24)" />
    <use xlink:href="#widget25" />
  </g>
</svg>