<?xml version="1.0" encoding="utf-8"?>
<svg version="1.1" xmlns:xlink="http://www.w3.org/1999/xlink" width="10px" height="14px" xmlns="http://www.w3.org/2000/svg">
  <g transform="matrix(1 0 0 1 -954 -18 )">
    <path d="M 10 0.5  C 9.924812030075145 0.2234374999999993  9.723214285714448 0  9.473684210526244 0  L 1.9172932330827734 0  C 1.8552631578945693 0  1.8045112781953776 0.056250000000000355  1.8045112781953776 0.12500000000000178  L 1.8045112781953776 1.0000000000000018  C 1.8045112781953776 1.0687499999999979  1.8552631578945693 1.125  1.9172932330827734 1.125  L 9 1.125  L 9 11.875  C 8.909774436090174 11.943749999999998  8.960526315789593 12  9.022556390977343 12  L 9.81203007518775 12  C 9.874060150376181 12  9.924812030075145 11.943749999999998  10 11.875  L 10 0.5  Z M 8 2.5  C 8.120300751879768 2.2234374999999993  7.918703007518843 2  7.669172932330866 2  L 0.45112781954890124 2  C 0.20159774436092448 2  0 2.2234374999999993  0 2.5  L 0 10.7921875  C 0 10.925  0.04793233082705228 11.0515625  0.1325187969923718 11.145312500000003  L 2.575657894736878 13.853124999999999  C 2.6066729323308664 13.887500000000003  2.641917293233064 13.915625000000002  2.679981203007628 13.939062499999999  L 2.679981203007628 13.96875  L 2.739191729323238 13.96875  C 2.78853383458636 13.989062500000003  2.840695488721849 14  2.89426691729318 14  L 7.669172932330866 14  C 7.918703007518843 14  8.120300751879768 13.7765625  8 13.499999999999996  L 8 2.5  Z M 2.6785714285715585 11.031249999999996  L 2.6785714285715585 12.378125  L 1.4647556390978025 11.031249999999996  L 2.6785714285715585 11.031249999999996  Z M 7.105263157894797 3.125  L 7.105263157894797 12.875  L 3.5808270676691336 12.875  L 3.5808270676691336 10.656249999999996  C 3.5808270676691336 10.310937499999998  3.3284774436090174 10.03125  3.016917293233064 10.03125  L 1.015037593984971 10.03125  L 1.015037593984971 3.125  L 7.105263157894797 3.125  Z " fill-rule="nonzero" fill="#ffffff" stroke="none" transform="matrix(1 0 0 1 954 18 )" />
  </g>
</svg>