<?xml version="1.0" encoding="utf-8"?>
<svg version="1.1" xmlns:xlink="http://www.w3.org/1999/xlink" width="21px" height="17px" xmlns="http://www.w3.org/2000/svg">
  <g transform="matrix(1 0 0 1 -15 -48 )">
    <path d="M 19.83603305785124 7.933223140495784  C 19.83603305785124 8.296859504132271  19.539173553719024 8.594380165289294  19.174876033057842 8.594380165289294  L 2.1573553719008487 8.594380165289294  L 7.763966942148784 14.7629752066116  C 8.008595041322337 15.034049586776746  7.9887603305784864 15.45057851239676  7.717685950413227 15.695206611570256  C 7.596692808979526 15.805760335801551  7.438724781529061 15.867061495116332  7.2748301012755405 15.867061495116332  C 7.088337501835099 15.867061495116332  6.910644959826243 15.787749082227265  6.7861157024793215 15.6489256198347  L 0.17454545454546633 8.376198347107447  C -0.05759684134835652 8.126502080321188  -0.05759684134835652 7.739944200670607  0.17454545454546633 7.490247933884348  L 6.7861157024793215 0.21752066115709567  C 6.911181717388445 0.07948138052233844  7.088771756674873 0.0007419019575536367  7.275041322314053 0.0007419019575536367  C 7.639413376271818 0.0007419019575536367  7.934795288125031 0.2961238138107092  7.934795288125031 0.6604958677685318  C 7.934795288125031 0.8242367625923634  7.873906647666274 0.9821271755290581  7.763966942148784 1.1034710743801952  L 2.1573553719008487 7.272066115702501  L 19.17553719008265 7.272066115702501  C 19.539173553719024 7.272066115702501  19.836694214876047 7.5695867768595235  19.836694214876047 7.933223140495784  Z " fill-rule="nonzero" fill="#000000" stroke="none" transform="matrix(1 0 0 1 15 48 )" />
  </g>
</svg>