<?xml version="1.0" encoding="utf-8"?>
<svg version="1.1" xmlns:xlink="http://www.w3.org/1999/xlink" width="9px" height="9px" xmlns="http://www.w3.org/2000/svg">
  <g>
    <path d="M 9 4.5  C 9 2.0141826923076565  6.985817307692287 0  4.5 0  C 2.0141826923077133 0  0 2.0141826923076565  0 4.5  C 0 6.9858173076923435  2.0141826923077133 9  4.5 9  C 6.985817307692287 9  9 6.9858173076923435  9 4.5  Z M 6.129086538461564 6.129086538461536  C 5.99495192307694 6.265384615384619  5.774278846153862 6.265384615384619  5.640144230769209 6.129086538461536  L 4.5 4.988942307692298  L 3.3598557692307907 6.129086538461536  C 3.2257211538461377 6.263221153846132  3.0050480769230603 6.263221153846132  2.8709134615384357 6.129086538461536  C 2.8038461538461377 6.062019230769238  2.769230769230788 5.973317307692298  2.769230769230788 5.884615384615415  C 2.769230769230788 5.7959134615384755  2.8038461538461377 5.707211538461536  2.8709134615384357 5.640144230769238  L 4.011057692307702 4.5  L 2.8709134615384357 3.3598557692307622  C 2.8038461538461377 3.292788461538464  2.769230769230788 3.2040865384615245  2.769230769230788 3.1153846153845848  C 2.769230769230788 3.026682692307702  2.8038461538461377 2.9379807692307622  2.8709134615384357 2.870913461538464  C 3.0050480769230603 2.736778846153868  3.2257211538461377 2.736778846153868  3.3598557692307907 2.870913461538464  L 4.5 4.011057692307702  L 5.640144230769209 2.870913461538464  C 5.774278846153862 2.736778846153868  5.99495192307694 2.736778846153868  6.129086538461564 2.870913461538464  C 6.263221153846132 3.0050480769230603  6.263221153846132 3.225721153846166  6.129086538461564 3.3598557692307622  L 4.988942307692298 4.5  L 6.129086538461564 5.640144230769238  C 6.263221153846132 5.774278846153834  6.263221153846132 5.99495192307694  6.129086538461564 6.129086538461536  Z " fill-rule="nonzero" fill="#5c6b77" stroke="none" />
  </g>
</svg>