<?xml version="1.0" encoding="utf-8"?>
<svg version="1.1" xmlns:xlink="http://www.w3.org/1999/xlink" width="10px" height="10px" xmlns="http://www.w3.org/2000/svg">
  <g transform="matrix(1 0 0 1 0 -5 )">
    <path d="M 1.5625 10  C 0.6995507812499966 10  0 9.300449218750003  0 8.4375  L 0 1.5625  C 0 0.6995507812499966  0.6995507812499966 0  1.5625 0  L 8.4375 0  C 9.300449218750003 0  10 0.6995507812499966  10 1.5625  L 10 8.4375  C 10 9.300449218750003  9.300449218750003 10  8.4375 10  L 1.5625 10  Z M 9.224806201550393 8.4375  L 9.224806201550393 1.5625  C 9.21875 1.1317187499999974  8.868281249999995 0.78125  8.4375 0.7751937984496138  L 1.5625 0.7751937984496138  C 1.1317187500000045 0.78125  0.78125 1.1317187499999974  0.7751937984496067 1.5625  L 0.7751937984496067 8.4375  C 0.78125 8.868281249999995  1.1317187500000045 9.21875  1.5625 9.224806201550393  L 8.4375 9.224806201550393  C 8.868281249999995 9.21875  9.21875 8.868281249999995  9.224806201550393 8.4375  Z M 3.0642516398330315 5.426356589147289  C 2.998797499088326 5.426356589147289  2.9457364341085253 5.36909068505588  2.9457364341085253 5.298449612403104  L 2.9457364341085253 4.701550387596896  C 2.9457364341085253 4.63090931494412  2.998797499088326 4.573643410852711  3.0642516398330315 4.573643410852711  L 6.9357483601669685 4.573643410852711  C 7.001202500911674 4.573643410852711  7.054263565891475 4.63090931494412  7.054263565891475 4.701550387596896  L 7.054263565891475 5.298449612403104  C 7.054263565891475 5.36909068505588  7.001202500911674 5.426356589147289  6.9357483601669685 5.426356589147289  L 3.0642516398330315 5.426356589147289  Z " fill-rule="nonzero" fill="#515a6e" stroke="none" transform="matrix(1 0 0 1 0 5 )" />
  </g>
</svg>