<?xml version="1.0" encoding="utf-8"?>
<svg version="1.1" xmlns:xlink="http://www.w3.org/1999/xlink" width="10px" height="10px" xmlns="http://www.w3.org/2000/svg">
  <g transform="matrix(1 0 0 1 0 -5 )">
    <path d="M 8.4375 10  L 1.5625 10  C 0.6995507812499977 10  0 9.300449218749998  0 8.4375  L 0 1.5625  C 0 0.6995507812499975  0.6995507812499977 0  1.5625 0  L 8.4375 0  C 9.300449218750002 0  10 0.6995507812499975  10 1.5625  L 10 8.4375  C 10 9.300449218749998  9.300449218750002 10  8.4375 10  Z M 8.4375 9.224806201550386  C 8.868281249999994 9.21875  9.21875 8.868281249999994  9.224806201550392 8.4375  L 9.224806201550392 1.5625  C 9.21875 1.1317187499999974  8.868281249999994 0.78125  8.4375 0.7751937984496138  L 1.5625 0.7751937984496138  C 1.1317187500000057 0.78125  0.78125 1.1317187499999974  0.7751937984496061 1.5625  L 0.7751937984496061 8.4375  C 0.78125 8.868281249999994  1.1317187500000057 9.21875  1.5625 9.224806201550386  L 8.4375 9.224806201550386  Z M 4.573643410852072 5.426356589147291  L 5.426356589147291 5.426345887936824  L 5.426356589147291 6.93574836016697  C 5.426356589147291 7.001202500911674  5.369090685055882 7.054263565891473  5.298449612403106 7.054263565891473  L 4.701550387596897 7.054263565891473  C 4.630909314944119 7.054263565891473  4.5736434108527115 7.001202500911674  4.5736434108527115 6.93574836016697  L 4.573643410852072 5.426356589147291  Z M 4.573643410853122 4.573643410852711  L 5.426356589147291 4.573654112064219  L 5.426356589147291 3.0642516398330386  C 5.426356589147291 2.998797499088334  5.369090685055882 2.9457364341085244  5.298449612403106 2.9457364341085244  L 4.701550387596897 2.9457364341085244  C 4.630909314944119 2.9457364341085244  4.5736434108527115 2.998797499088334  4.5736434108527115 3.0642516398330386  L 4.573643410853122 4.573643410852711  Z M 2.9457364341085244 5.298449612403106  C 2.9457364341085244 5.369090685055882  2.998797499088326 5.426356589147291  3.0642516398330324 5.426356589147291  L 6.93574836016697 5.426356589147291  C 7.001202500911674 5.426356589147291  7.054263565891473 5.369090685055882  7.054263565891473 5.298449612403106  L 7.054263565891473 4.701550387596896  C 7.054263565891473 4.63090931494412  7.001202500911674 4.573643410852711  6.93574836016697 4.573643410852711  L 3.0642516398330324 4.573643410852711  C 2.998797499088326 4.573643410852711  2.9457364341085244 4.63090931494412  2.9457364341085244 4.701550387596896  L 2.9457364341085244 5.298449612403106  Z " fill-rule="nonzero" fill="#219a89" stroke="none" transform="matrix(1 0 0 1 0 5 )" />
  </g>
</svg>