<?xml version="1.0" encoding="utf-8"?>
<svg version="1.1" xmlns:xlink="http://www.w3.org/1999/xlink" width="46px" height="28px" xmlns="http://www.w3.org/2000/svg">
  <g transform="matrix(1 0 0 1 -495 -182 )">
    <path d="M 495.5 184  A 1.5 1.5 0 0 1 497 182.5 L 539 182.5  A 1.5 1.5 0 0 1 540.5 184 L 540.5 208  A 1.5 1.5 0 0 1 539 209.5 L 497 209.5  A 1.5 1.5 0 0 1 495.5 208 L 495.5 184  Z " fill-rule="nonzero" fill="#1989fa" stroke="none" />
    <path d="M 495.5 184  A 1.5 1.5 0 0 1 497 182.5 L 539 182.5  A 1.5 1.5 0 0 1 540.5 184 L 540.5 208  A 1.5 1.5 0 0 1 539 209.5 L 497 209.5  A 1.5 1.5 0 0 1 495.5 208 L 495.5 184  Z " stroke-width="1" stroke="#aaaaaa" fill="none" />
  </g>
</svg>