<?xml version="1.0" encoding="utf-8"?>
<svg version="1.1" xmlns:xlink="http://www.w3.org/1999/xlink" width="311px" height="23px" xmlns="http://www.w3.org/2000/svg">
  <g transform="matrix(1 0 0 1 -369 -132 )">
    <path d="M 0 23  L 0 0  L 29.55785123966942 0  L 207.15582191780823 0  L 209.8184931506849 0  L 225.79452054794527 0  L 233.78253424657532 0  L 281.44214876033055 0  L 311 0  L 311 23  C 311 23  302.2741296051395 21.010742408706108  288.2661326124803 19.234575612213064  C 286.5262765274289 19.01396775334601  284.70494308992966 18.796648189262328  282.80872125563604 18.586835535836087  C 269.42422532489866 17.10587153691401  252.30867673617084 15.998929887330092  233.78253424657532 16.75  C 212.42264687930896 17.615953234493304  196.50513698630135 23  196.50513698630135 23  L 0 23  Z " fill-rule="nonzero" fill="#ffffff" stroke="none" transform="matrix(1 0 0 1 369 132 )" />
  </g>
</svg>