<?xml version="1.0" encoding="utf-8"?>
<svg version="1.1" xmlns:xlink="http://www.w3.org/1999/xlink" width="35px" height="14px" xmlns="http://www.w3.org/2000/svg">
  <g transform="matrix(1 0 0 1 -1 -4 )">
    <path d="M 2 11.000000000000002  A 6 6 0 0 1 7.999999999999998 5 L 29 5  A 6 6 0 0 1 35 11 A 6 6 0 0 1 29 17 L 8 17  A 6 6 0 0 1 2 11.000000000000002 Z " fill-rule="nonzero" fill="#1e98d7" stroke="none" fill-opacity="0.25098039215686274" />
    <path d="M 1.5 11.000000000000002  A 6.5 6.5 0 0 1 7.999999999999998 4.5 L 29 4.5  A 6.5 6.5 0 0 1 35.5 11 A 6.5 6.5 0 0 1 29 17.5 L 8 17.5  A 6.5 6.5 0 0 1 1.5 11.000000000000002 Z " stroke-width="1" stroke="#1e98d7" fill="none" stroke-opacity="0.25098039215686274" />
  </g>
</svg>