<?xml version="1.0" encoding="utf-8"?>
<svg version="1.1" xmlns:xlink="http://www.w3.org/1999/xlink" width="10px" height="14px" xmlns="http://www.w3.org/2000/svg">
  <g transform="matrix(1 0 0 1 -13 -11 )">
    <path d="M 10 1.5109375000000114  C 9.998437500000023 0.7124999999999773  9.298437499999977 0.014062500000022737  8.498437500000023 0.014062500000022737  C 7.698437500000011 0.014062500000022737  6.998437500000023 0.7124999999999773  7 1.5109375000000114  L 7 12.489062499999989  C 6.998437500000023 13.287500000000023  7.698437500000011 13.985937499999977  8.498437500000023 13.985937499999977  C 9.298437499999977 13.985937499999977  9.998437500000023 13.287500000000023  10 12.489062499999989  L 10 1.5109375000000114  Z M 3 1.5109375000000114  C 3 0.7124999999999773  2.3000000000000114 0.014062500000022737  1.5015624999999773 0.014062500000022737  C 0.7015625000000227 0.014062500000022737  0.0015624999999772626 0.7124999999999773  0 1.5109375000000114  L 0 12.489062499999989  C 0.0015624999999772626 13.287500000000023  0.7015625000000227 13.985937499999977  1.5015624999999773 13.985937499999977  C 2.3015624999999886 13.985937499999977  3.0015624999999773 13.287500000000023  3 12.489062499999989  L 3 1.5109375000000114  Z " fill-rule="nonzero" fill="#ffffff" stroke="none" transform="matrix(1 0 0 1 13 11 )" />
  </g>
</svg>