<?xml version="1.0" encoding="utf-8"?>
<svg version="1.1" xmlns:xlink="http://www.w3.org/1999/xlink" width="24px" height="17px" xmlns="http://www.w3.org/2000/svg">
  <g transform="matrix(1 0 0 1 -83 -12 )">
    <path d="M 0.9204545454545366 4.455468749999994  L 5.2951704545454925 4.455468749999994  L 10.736079545454508 0.45234375000001137  C 10.887377490360905 0.3410110484855068  11.07558654619876 0.28033050334763066  11.269602286070999 0.28033050334763066  C 11.740299516040459 0.28033050334763066  12.121875013343729 0.6301080425423122  12.121875013343729 1.0615805033476449  C 12.121875013343729 1.0616265855679274  12.121875008895813 1.0616726677803825  12 1.0617187499999887  L 12 15.96484375000001  C 12.121675357817546 16.396186734521727  11.74015837489906 16.745762290096017  11.269602349433512 16.745762290096017  C 11.076335572816301 16.745762290096017  10.888807440486744 16.685548612169868  10.737784090909113 16.575  L 5.146874999999991 12.484375  L 0.9204545454545366 12.484375  C 0.44975731548512554 12.484375  0.0681818181818049 12.134597460805317  0.0681818181818049 11.703124999999986  L 0.0681818181818049 5.2367187500000085  C 0.0681818181818049 4.805246289194676  0.44975731548512554 4.455468749999994  0.9204545454545366 4.455468749999994  Z M 18.452556818181815 8.4734375  C 18.45488168719765 10.301053815387483  17.65326095796505 12.052339577430747  16.22897727272724 13.331250000000004  C 16.07047666167588 13.469746478009796  15.859903642273267 13.547006238710217  15.640929338999822 13.547006238710217  C 15.170232109030362 13.547006238710217  14.788656611727092 13.197228699515534  14.788656611727092 12.765756238710203  C 14.788656611727092 12.560059265706322  14.87715460784651 12.362661684705039  15.034943181818207 12.216406250000013  C 16.13274746014528 11.231256003467404  16.750408260802747 9.881697883424017  16.74801136363635 8.4734375  C 16.750613599742028 7.169118851432994  16.22069807270845 5.911114186137249  15.26249999999998 4.946874999999995  C 15.115668369930907 4.802291228648238  15.034036728972817 4.6120883700467825  15.034036728972817 4.414552401497968  C 15.034036728972817 3.9830799406926847  15.415612226276087 3.6333024014980024  15.886309456245547 3.6333024014980024  C 16.130043559295277 3.6333024014980024  16.362115086742847 3.7289591967143023  16.52386363636364 3.896093749999972  C 17.76718983527951 5.147891578949338  18.455111478147778 6.780527532742875  18.452556818181815 8.4734375  Z M 23.931818181818194 8.4734375  C 23.931818181818194 11.59453125  22.606534090909122 14.52578124999999  20.280681818181815 16.718750000000014  C 20.11982657939562 16.87352902653371  19.896807745255078 16.96112633935757  19.663602516497185 16.96112633935757  C 19.192905286527775 16.96112633935757  18.811329789224455 16.61134880016284  18.811329789224455 16.179876339357556  C 18.811329789224455 15.973770435780178  18.900179045586874 15.776014506254903  19.058522727272752 15.629687500000014  C 21.09427500412049 13.71544780075422  22.23167677606206 11.146759380886131  22.227272727272734 8.4734375  C 22.227272727272734 5.8195312500000345  21.12528409090909 3.3257812499999826  19.179545454545504 1.4328124999999772  C 19.034351612080368 1.288521855113328  18.953735539436593 1.0994151936245289  18.953735539436593 0.9031146646071164  C 18.953735539436593 0.4716422038017839  19.335311036739867 0.12186466460710221  19.806008266709327 0.12186466460710221  C 20.037890869555568 0.12186466460710221  20.259762969327262 0.20847423716991786  20.420454545454536 0.3617187499999972  C 22.661931818181806 2.5414062499999712  23.931818181818194 5.416406250000014  23.931818181818194 8.4734375  Z " fill-rule="nonzero" fill="#ffffff" stroke="none" transform="matrix(1 0 0 1 83 12 )" />
  </g>
</svg>