<?xml version="1.0" encoding="utf-8"?>
<svg version="1.1" xmlns:xlink="http://www.w3.org/1999/xlink" width="14px" height="12px" xmlns="http://www.w3.org/2000/svg">
  <g transform="matrix(1 0 0 1 -83 -12 )">
    <path d="M 6.512609786299578 0.125452109472306  C 6.596938776079384 0.04060210480418647  6.700172940963228 0.023111088982247452  6.771402289343783 0.023111088982247452  C 6.835337507642805 0.023111088982247452  6.900761322318559 0.037699337951785594  6.954499666070745 0.06553609131631077  L 6.961793784958729 0.06985302864435994  L 6.969087903846727 0.07283022139785089  C 7.1507711100980345 0.13416039883595232  7.219172117527293 0.23791557860810286  7 0.458674431353856  L 7 10.950451587467597  C 7.219172128720842 11.171136025505788  7.150771121291583 11.27637979046115  6.969087903846727 11.336295797423588  L 6.942888609854691 11.345078523881881  L 6.922569264274998 11.365546721263769  C 6.878953391555683 11.409385894073466  6.841143030154058 11.410874490450226  6.761205403603384 11.410874490450226  C 6.721906457018562 11.410874490450226  6.585327719863329 11.350884046393134  6.514098382676323 11.27928255731355  L 6.509632593546087 11.274891194084404  L 3.1602904212528387 8.496276930842342  L 0.4666750144810976 8.496276930842342  C 0.3372415444116683 8.496276930842342  0.2005883813553453 8.429066793798356  0.13665316305632302 8.364759423606763  C 0.07264350766266148 8.300452053415171  0.005805533704801746 8.163054597767243  0.005805522511252548 8.032951261007312  L 0.005805522511252548 3.3703692353028813  C 0.005805522511252548 3.268028226006372  0.04503004319498416 3.181764050862604  0.0698151779049141 3.1569789161526742  L 0.10182000560173776 3.1569789161526742  L 0.13665316305632302 3.121848043900158  C 0.20066281844998457 3.0575406737085657  0.3372415444116683 2.9903305366645796  0.4666750144810976 2.9903305366645796  L 3.1602904212528387 2.9903305366645796  L 6.509632593546087 0.12842930222579696  L 6.512609786299578 0.125452109472306  Z M 8.964179402063905 2.8596317703087877  C 9.099418394644573 2.8596317703087877  9.221557745826004 2.9158262919261446  9.308789491264662 3.006407382010863  L 11.206005758122032 4.910843341855127  L 13.103073161983644 3.0064818079119604  C 13.192482528053276 2.917808741083036  13.31334840077804 2.868119141361177  13.439272687812235 2.8682656225777947  C 13.703870724561241 2.8682656225777947  13.918377477002082 3.0836655417995047  13.918377477002082 3.3493055971315897  C 13.918593484243488 3.4754420344811194  13.869188310519618 3.596602340896233  13.78083115835841 3.686621567444355  L 11.883614891501054 5.591131953189709  L 13.780607869461576 7.49564235012862  C 13.869048893168639 7.585678783247928  13.918510444071572 7.706899680582588  13.918303051100978 7.833107172243572  C 13.918303051100978 8.098747216382108  13.703721861565498 8.314072709702728  13.439123836010054 8.314072709702728  C 13.313298117217883 8.314199794302944  13.192526282207126 8.26456936797841  13.103147599078298 8.176005387364299  L 11.205931332220928 6.271420564524298  L 9.308640628268918 8.176005387364299  C 9.218589735211438 8.269810646785146  9.094137921355014 8.322774586873862  8.964104964969266 8.32263214726418  C 8.69950692822026 8.32263214726418  8.485000175779419 8.10730666513711  8.485000175779419 7.841666609805024  C 8.485000175779419 7.705906602336043  8.541045834401046 7.5833206845544865  8.63125478378673 7.49571677602971  L 10.528322187648357 5.591057527288612  L 8.631105920790986 3.6863982785475145  C 8.537537775198146 3.595705492887859  8.484807899234795 3.4709051827031274  8.485000175779433 3.3405973077679434  C 8.485000175779433 3.0748828265347683  8.699581365314899 2.8595573444076976  8.964179402063905 2.8595573332141484  Z " fill-rule="nonzero" fill="#ffffff" stroke="none" transform="matrix(1 0 0 1 83 12 )" />
  </g>
</svg>