<svg t="1657873598076" class="icon" viewBox="0 0 1024 1024" version="1.1" xmlns="http://www.w3.org/2000/svg" p-id="11782" height="200" width="200"><path d="M704 434.496l131.7952-131.7888a38.4 38.4 0 0 1 65.5488 27.1552v388.48a38.4 38.4 0 0 1-65.5488 27.1488L704 613.7024V729.6a38.4 38.4 0 0 1-38.4 38.4H166.4a38.4 38.4 0 0 1-38.4-38.4V345.6a38.4 38.4 0 0 1 38.4-38.4h499.2a38.4 38.4 0 0 1 38.4 38.4v88.896zM281.6 524.8c42.4128 0 76.8-34.3872 76.8-76.8s-34.3872-76.8-76.8-76.8-76.8 34.3872-76.8 76.8 34.3872 76.8 76.8 76.8z" fill="#d81e06" p-id="11783" data-spm-anchor-id="a313x.7781069.0.i24" class="selected"></path></svg>