<svg t="1658106273706" class="icon" viewBox="0 0 1024 1024" version="1.1" xmlns="http://www.w3.org/2000/svg" p-id="2173" width="16" height="16"><path d="M956.39 400.827C922.164 266.675 828.186 155.703 701.502 99.874l94.522 443.782L956.39 400.827zM206.208 189.167C106.183 286.191 56.845 424.181 72.696 562.659l351.347-309.096-217.835-64.396zM643.118 78.847a446.363 446.363 0 0 0-138.947-16.775 448.047 448.047 0 0 0-250.583 86.934l437.868 146.949-48.338-217.108zM83.786 623.979c34.443 133.772 128.248 244.407 254.583 300.291l-95.915-426.55L83.786 623.979zM969.893 496.089a372.746 372.746 0 0 0-2.37-34.138l-329.972 303.78 196.157 69.256c91.522-88.456 141.056-211.704 136.185-338.898zM396.862 945.166a447.857 447.857 0 0 0 139.077 16.766 447.784 447.784 0 0 0 250.322-86.718L349.286 733.05l47.576 212.116z" fill="#707070" p-id="2174"></path><path d="M397.253 471.171h245.668c22.593 0 40.923 18.32 40.923 40.913 0 22.592-18.33 40.922-40.923 40.922H397.253c-22.592 0-40.922-18.33-40.922-40.922 0-22.593 18.33-40.913 40.922-40.913z" fill="#707070" p-id="2175"></path><path d="M479.17 634.879V389.21c0-22.593 18.32-40.923 40.913-40.923s40.923 18.33 40.923 40.923v245.668c0 22.592-18.33 40.922-40.923 40.922s-40.913-18.329-40.913-40.921z" fill="#707070" p-id="2176"></path></svg>