<svg t="1658106432484" class="icon" viewBox="0 0 1024 1024" version="1.1" xmlns="http://www.w3.org/2000/svg" p-id="1377" width="16" height="16"><path d="M847.237 894.652c-11.174 0-22.376-4.225-30.884-12.791L641.596 707.104c-17.015-17.045-17.015-44.723 0-61.768 17.044-17.014 44.723-17.014 61.768 0l174.758 174.787c17.014 17.045 17.014 44.725 0 61.738-8.478 8.567-19.652 12.791-30.885 12.791zM258.695 468.661c-18.078 0-32.771-14.677-32.771-32.755 0.09-113.709 83.365-206.24 185.841-206.24 18.078 0 32.771 14.708 32.771 32.771 0 18.078-14.708 32.771-32.771 32.771-66.32 0-120.194 63.13-120.194 140.699-0.105 18.076-14.722 32.754-32.876 32.754z" fill="#707070" p-id="1378"></path><path d="M432.165 807.213c-204.772 0-371.412-166.609-371.412-371.397 0-204.772 166.64-371.323 371.412-371.323 204.758 0 371.428 166.64 371.428 371.413 0 204.758-166.55 371.307-371.428 371.307z m0-655.296c-156.605 0-283.989 127.384-283.989 283.989 0 156.59 127.384 283.989 283.989 283.989 156.59 0 283.988-127.398 283.988-283.989 0-156.605-127.398-283.989-283.988-283.989z m499.665-24.998H732.12c-14.798 0-26.84-12.027-26.84-26.854V86.136c0-14.828 12.042-26.855 26.84-26.855h199.74c14.797 0 26.84 12.027 26.84 26.855v13.929c0 14.843-12.043 26.854-26.87 26.854z" fill="#707070" p-id="1379"></path></svg>