<svg t="1658106461245" class="icon" viewBox="0 0 1024 1024" version="1.1" xmlns="http://www.w3.org/2000/svg" p-id="1668" width="16" height="16"><path d="M849.161 976.277c-11.174 0-22.376-4.224-30.884-12.79L643.52 788.729c-17.015-17.045-17.015-44.722 0-61.767 17.044-17.015 44.723-17.015 61.768 0l174.758 174.786c17.014 17.045 17.014 44.725 0 61.739-8.479 8.567-19.652 12.79-30.885 12.79zM260.619 550.286c-18.078 0-32.771-14.677-32.771-32.755 0.09-113.709 83.365-206.24 185.841-206.24 18.078 0 32.771 14.708 32.771 32.771 0 18.078-14.708 32.771-32.771 32.771-66.32 0-120.194 63.13-120.194 140.699-0.105 18.077-14.723 32.754-32.876 32.754zM934.407 208.516H734.35c-14.824 0-26.887-12.048-26.887-26.901v-13.953c0-14.854 12.063-26.901 26.887-26.901h200.088c14.824 0 26.887 12.047 26.887 26.901v13.953c-0.001 14.869-12.063 26.901-26.918 26.901z" fill="#515151" p-id="1669"></path><path d="M800.516 274.668V74.624c0-14.854 12.033-26.901 26.917-26.901h13.924c14.883 0 26.915 12.048 26.915 26.901v200.059c0 14.854-12.032 26.9-26.915 26.9h-13.924c-14.884-0.014-26.917-12.062-26.917-26.915zM434.089 888.839c-204.772 0-371.412-166.609-371.412-371.397 0-204.772 166.64-371.323 371.412-371.323 204.758 0 371.428 166.64 371.428 371.413 0 204.757-166.55 371.307-371.428 371.307z m0-655.297c-156.605 0-283.989 127.384-283.989 283.989 0 156.59 127.384 283.989 283.989 283.989 156.59 0 283.988-127.399 283.988-283.989 0-156.605-127.398-283.989-283.988-283.989z" fill="#515151" p-id="1670"></path></svg>