<?xml version="1.0" encoding="utf-8"?>
<svg version="1.1" xmlns:xlink="http://www.w3.org/1999/xlink" width="8px" height="8px" xmlns="http://www.w3.org/2000/svg">
  <g transform="matrix(1 0 0 1 -12 -13 )">
    <path d="M 8 4  C 8 2.9315789473683935  7.584210526315886 1.9263157894737333  6.828947368420899 1.1710526315789593  C 6.073684210526238 0.4157894736842991  5.068421052631578 0  4 0  C 2.931578947368422 0  1.9263157894737617 0.4157894736842991  1.1710526315791014 1.1710526315789593  C 0.41578947368410724 1.9263157894737333  0 2.9315789473683935  0 4  C 0 5.0684210526316065  0.41578947368410724 6.073684210526267  1.1710526315791014 6.828947368421041  C 1.9263157894737617 7.584210526315701  2.931578947368422 8  4 8  C 5.068421052631578 8  6.073684210526238 7.584210526315701  6.828947368420899 6.828947368421041  C 7.584210526315886 6.073684210526267  8 5.0684210526316065  8 4  Z " fill-rule="nonzero" fill="#ffffff" stroke="none" transform="matrix(1 0 0 1 12 13 )" />
  </g>
</svg>