<?xml version="1.0" encoding="utf-8"?>
<svg version="1.1" xmlns:xlink="http://www.w3.org/1999/xlink" width="12px" height="9px" xmlns="http://www.w3.org/2000/svg">
  <defs>
    <mask fill="white" id="clip10">
      <path d="M 11.77734375 0.296875  C 11.92578125 0.49479166666674246  12 0.7291666666667425  12 1  C 12 1.2708333333332575  11.92578125 1.505208333333485  11.77734375 1.703125  L 6.52734375 8.703125  C 6.37890625 8.901041666666515  6.203125 9  6 9  C 5.796875 9  5.62109375 8.901041666666515  5.47265625 8.703125  L 0.22265625 1.703125  C 0.07421875 1.505208333333485  0 1.2708333333332575  0 1  C 0 0.7291666666667425  0.07421875 0.49479166666674246  0.22265625 0.296875  C 0.37109375 0.09895833333348492  0.546875 0  0.75 0  L 11.25 0  C 11.453125 0  11.62890625 0.09895833333348492  11.77734375 0.296875  Z " fill-rule="evenodd" />
    </mask>
  </defs>
  <g transform="matrix(1 0 0 1 -445 -70 )">
    <path d="M 11.77734375 0.296875  C 11.92578125 0.49479166666674246  12 0.7291666666667425  12 1  C 12 1.2708333333332575  11.92578125 1.505208333333485  11.77734375 1.703125  L 6.52734375 8.703125  C 6.37890625 8.901041666666515  6.203125 9  6 9  C 5.796875 9  5.62109375 8.901041666666515  5.47265625 8.703125  L 0.22265625 1.703125  C 0.07421875 1.505208333333485  0 1.2708333333332575  0 1  C 0 0.7291666666667425  0.07421875 0.49479166666674246  0.22265625 0.296875  C 0.37109375 0.09895833333348492  0.546875 0  0.75 0  L 11.25 0  C 11.453125 0  11.62890625 0.09895833333348492  11.77734375 0.296875  Z " fill-rule="nonzero" fill="#666666" stroke="none" transform="matrix(1 0 0 1 445 70 )" />
    <path d="M 11.77734375 0.296875  C 11.92578125 0.49479166666674246  12 0.7291666666667425  12 1  C 12 1.2708333333332575  11.92578125 1.505208333333485  11.77734375 1.703125  L 6.52734375 8.703125  C 6.37890625 8.901041666666515  6.203125 9  6 9  C 5.796875 9  5.62109375 8.901041666666515  5.47265625 8.703125  L 0.22265625 1.703125  C 0.07421875 1.505208333333485  0 1.2708333333332575  0 1  C 0 0.7291666666667425  0.07421875 0.49479166666674246  0.22265625 0.296875  C 0.37109375 0.09895833333348492  0.546875 0  0.75 0  L 11.25 0  C 11.453125 0  11.62890625 0.09895833333348492  11.77734375 0.296875  Z " stroke-width="2" stroke="#e4e4e4" fill="none" transform="matrix(1 0 0 1 445 70 )" mask="url(#clip10)" />
  </g>
</svg>