<?xml version="1.0" encoding="utf-8"?>
<svg version="1.1" xmlns:xlink="http://www.w3.org/1999/xlink" width="35px" height="21px" xmlns="http://www.w3.org/2000/svg">
  <g>
    <path d="M 34.328124999999964 2.0000000000000755  L 32.703125 2.0000000000000755  C 32.44531250000004 2.0000000000000755  32.195312499999964 2.0703125000001137  31.976562499999964 2.210937499999924  L 25.218749999999886 6.476562499999924  C 25.023437500000075 6.601562499999962  24.906249999999922 6.812500000000076  24.906249999999922 7.039062499999962  L 24.906249999999922 12.976562500000039  C 24.906249999999922 13.203124999999924  25.023437500000075 13.414062500000037  25.218749999999886 13.539062500000076  L 31.976562499999964 17.804687500000075  C 32.195312499999964 17.9375  32.44531250000004 18.015624999999922  32.703125 18.015624999999922  L 34.328124999999964 18.015624999999922  C 34.70312500000008 18.015624999999922  35 17.71875  35 17.351562500000036  L 35 2.664062499999962  C 35 2.296875  34.69531249999992 2.0000000000000755  34.328124999999964 2.0000000000000755  Z M 22.87500000000004 15.976562499999886  C 22.882812499999925 18.187500000000075  21.078124999999922 19.99999999999996  18.8671875 20  L 4.0234375000000755 20  C 1.8124999999998863 19.99999999999996  0 18.187500000000075  0 15.984375000000037  L 0 4.015624999999924  C 0 1.8046875  1.8124999999998863 0  4.015624999999924 0  L 18.859375000000114 0  C 21.070312500000036 0  22.87500000000004 1.8124999999998863  22.87500000000004 4.015624999999924  L 22.87500000000004 15.976562499999886  Z " fill-rule="nonzero" fill="#ffffff" stroke="none" />
  </g>
</svg>