<?xml version="1.0" encoding="utf-8"?>
<svg version="1.1" xmlns:xlink="http://www.w3.org/1999/xlink" width="77px" height="32px" xmlns="http://www.w3.org/2000/svg">
  <defs>
    <mask fill="white" id="clip17">
      <path d="M 0 30  L 0 2  C 0 0.8799999999999955  0.8800000000001091 0  2 0  L 28 0  L 42 0  L 75 0  C 76.11999999999989 0  77 0.8799999999999955  77 2  L 77 30  C 77 31.120000000000005  76.11999999999989 32  75 32  L 2 32  C 0.8800000000001091 32  0 31.120000000000005  0 30  Z " fill-rule="evenodd" />
    </mask>
  </defs>
  <g transform="matrix(1 0 0 1 -1382 -217 )">
    <path d="M 0 30  L 0 2  C 0 0.8799999999999955  0.8800000000001091 0  2 0  L 28 0  L 42 0  L 75 0  C 76.11999999999989 0  77 0.8799999999999955  77 2  L 77 30  C 77 31.120000000000005  76.11999999999989 32  75 32  L 2 32  C 0.8800000000001091 32  0 31.120000000000005  0 30  Z " fill-rule="nonzero" fill="#ffffff" stroke="none" fill-opacity="0" transform="matrix(1 0 0 1 1382 217 )" />
    <path d="M 0 30  L 0 2  C 0 0.8799999999999955  0.8800000000001091 0  2 0  L 28 0  L 42 0  L 75 0  C 76.11999999999989 0  77 0.8799999999999955  77 2  L 77 30  C 77 31.120000000000005  76.11999999999989 32  75 32  L 2 32  C 0.8800000000001091 32  0 31.120000000000005  0 30  Z " stroke-width="4" stroke="#2b85e4" fill="none" transform="matrix(1 0 0 1 1382 217 )" mask="url(#clip17)" />
  </g>
</svg>