<?xml version="1.0" encoding="utf-8"?>
<svg version="1.1" xmlns:xlink="http://www.w3.org/1999/xlink" width="11px" height="10px" xmlns="http://www.w3.org/2000/svg">
  <g>
    <path d="M 11 1.8543956043955632  C 11 1.287774725274744  10.524038461538481 0.8241758241758248  9.942307692307708 0.8241758241758248  L 8.884615384615415 0.8241758241758248  L 8.884615384615415 1.4423076923076792  C 8.884615384615415 1.5556318681319112  8.789423076923072 1.6483516483515928  8.673076923076934 1.6483516483515928  L 8.25 1.6483516483515928  C 8.133653846153834 1.6483516483515928  8.038461538461519 1.5556318681319112  8.038461538461519 1.4423076923076792  L 8.038461538461519 0.8241758241758248  L 2.9615384615384808 0.8241758241758248  L 2.9615384615384808 1.4423076923076792  C 2.9615384615384808 1.5556318681319112  2.866346153846166 1.6483516483515928  2.75 1.6483516483515928  L 2.326923076923066 1.6483516483515928  C 2.2105769230769283 1.6483516483515928  2.1153846153845848 1.5556318681319112  2.1153846153845848 1.4423076923076792  L 2.1153846153845848 0.8241758241758248  L 1.0576923076922924 0.8241758241758248  C 0.4759615384615188 0.8241758241758248  0 1.287774725274744  0 1.8543956043955632  L 0 8.859890109890046  C 0 9.426510989010978  0.4759615384615188 9.89010989010984  1.0576923076922924 9.89010989010984  L 9.942307692307708 9.89010989010984  C 10.524038461538481 9.89010989010984  11 9.426510989010978  11 8.859890109890046  L 11 1.8543956043955632  Z M 10.15384615384616 3.9148351648350967  L 10.15384615384616 8.550824175824175  C 10.15384615384616 8.834134615384585  9.915865384615415 9.065934065934016  9.625 9.065934065934016  L 1.375 9.065934065934016  C 1.0841346153845848 9.065934065934016  0.8461538461538396 8.834134615384585  0.8461538461538396 8.550824175824175  L 0.8461538461538396 3.9148351648350967  C 0.8461538461538396 3.8015109890109784  0.9413461538461831 3.708791208791183  1.0576923076922924 3.708791208791183  L 9.942307692307708 3.708791208791183  C 10.058653846153817 3.708791208791183  10.15384615384616 3.8015109890109784  10.15384615384616 3.9148351648350967  Z M 2.9615384615384808 0.8241758241758248  L 2.9615384615384808 0.2060439560439704  C 2.9615384615384808 0.09271978021979521  2.866346153846166 0  2.75 0  L 2.326923076923066 0  C 2.2105769230769283 0  2.1153846153845848 0.09271978021979521  2.1153846153845848 0.2060439560439704  L 2.1153846153845848 0.8241758241758248  L 2.9615384615384808 0.8241758241758248  Z M 8.884615384615415 0.8241758241758248  L 8.884615384615415 0.2060439560439704  C 8.884615384615415 0.09271978021979521  8.789423076923072 0  8.673076923076934 0  L 8.25 0  C 8.133653846153834 0  8.038461538461519 0.09271978021979521  8.038461538461519 0.2060439560439704  L 8.038461538461519 0.8241758241758248  L 8.884615384615415 0.8241758241758248  Z " fill-rule="nonzero" fill="#808695" stroke="none" />
  </g>
</svg>