<?xml version="1.0" encoding="utf-8"?>
<svg version="1.1" xmlns:xlink="http://www.w3.org/1999/xlink" width="15px" height="16px" xmlns="http://www.w3.org/2000/svg">
  <g transform="matrix(1 0 0 1 -1185 -485 )">
    <path d="M 14.970930232558146 8  C 14.970930232558146 7.454263565891466  14.552325581395372 7.007751937984466  14.04069767441861 7.007751937984466  L 8.430232558139537 7.007751937984466  L 8.430232558139537 1.0232558139535115  C 8.430232558139537 0.4775193798449493  8.01162790697675 0.031007751937977446  7.5 0.031007751937977446  C 6.98837209302325 0.031007751937977446  6.5697674418604635 0.4775193798449493  6.5697674418604635 1.0232558139535115  L 6.5697674418604635 7.007751937984466  L 0.9593023255813904 7.007751937984466  C 0.44767441860463997 7.007751937984466  0.029069767441853855 7.454263565891466  0.029069767441853855 8  C 0.029069767441853855 8.272868217054253  0.13372093023255704 8.520930232558129  0.30232558139535737 8.700775193798421  C 0.47093023255813105 8.880620155038741  0.7034883720930285 8.992248062015534  0.9593023255813904 8.992248062015534  L 6.5697674418604635 8.992248062015534  L 6.5697674418604635 14.976744186046488  C 6.5697674418604635 15.249612403100713  6.674418604651167 15.497674418604618  6.84302325581394 15.677519379844938  C 7.011627906976741 15.85736434108523  7.244186046511638 15.968992248062023  7.5 15.968992248062023  C 8.01162790697675 15.968992248062023  8.430232558139537 15.52248062015505  8.430232558139537 14.976744186046488  L 8.430232558139537 8.992248062015534  L 14.04069767441861 8.992248062015534  C 14.552325581395372 8.992248062015534  14.970930232558146 8.545736434108534  14.970930232558146 8  Z " fill-rule="nonzero" fill="#ffffff" stroke="none" transform="matrix(1 0 0 1 1185 485 )" />
  </g>
</svg>