<svg t="1657786313322" class="icon" viewBox="0 0 1024 1024" version="1.1" xmlns="http://www.w3.org/2000/svg" p-id="2332" height="200" width="200"><path d="M332.586667 586.944l-111.573334-111.573333a42.666667 42.666667 0 0 1 0-60.373334L434.538667 201.514667a42.666667 42.666667 0 0 1 60.330666 0L771.84 478.442667a42.666667 42.666667 0 0 1 0 60.330666l-38.485333 38.506667 103.850666 34.965333a21.333333 21.333333 0 0 1 8.277334 35.306667l-181.376 181.376a21.333333 21.333333 0 0 1-35.306667-8.277333l-34.986667-103.850667-35.498666 35.498667a42.666667 42.666667 0 0 1-60.330667 0l-102.058667-102.037334-34.56 59.434667a42.666667 42.666667 0 0 1-7.402666 9.408 38.016 38.016 0 0 1-13.248 8.597333 42.752 42.752 0 0 1-24.021334 2.517334h-60.736v49.301333a42.645333 42.645333 0 0 1-85.269333 0v-166.613333a42.645333 42.645333 0 0 1 85.269333 0v41.322666h37.525334l39.146666-67.285333z m277.674666-65.493333a43.2 43.2 0 0 0 61.098667 0.256 43.2 43.2 0 0 0-0.213333-61.098667 43.2 43.2 0 0 0-61.12-0.234667 43.2 43.2 0 0 0 0.234666 61.098667z" fill="#2A2A37" p-id="2333"></path></svg>