<?xml version="1.0" encoding="utf-8"?>
<svg version="1.1" xmlns:xlink="http://www.w3.org/1999/xlink" width="12px" height="12px" xmlns="http://www.w3.org/2000/svg">
  <g transform="matrix(1 0 0 1 -229 -135 )">
    <path d="M 11.76221026490066 11.86030629139077  C 11.967094370860991 11.664735099337804  11.973302980132416 11.341887417218459  11.780836092715163 11.13700331125824  L 8.465438741721869 7.790562913907252  C 9.114238410596045 6.977235099337804  9.505380794701978 5.946605960264833  9.505380794701978 4.825951986754944  C 9.505380794701978 2.2028145695364856  7.378932119205274 0.07636589403978178  4.752690397350989 0.07636589403978178  C 2.126448675496704 0.07636589403978178  0 2.2059188741720845  0 4.829056291390771  C 0 7.452193708609229  2.126448675496704 9.578642384105933  4.752690397350989 9.578642384105933  C 5.888865894039782 9.578642384105933  6.928807947019891 9.181291390728575  7.748344370860991 8.51697019867538  L 11.042011589403955 11.84168046357604  C 11.141349337748352 11.94722682119209  11.277938741721869 12  11.411423841059559 12  C 11.538700331125824 12  11.66597682119209 11.953435430463514  11.76221026490066 11.86030629139077  Z M 7.391349337748352 7.464610927152307  C 6.686672185430439 8.169288079470107  5.749172185430439 8.557326158940441  4.752690397350989 8.557326158940441  C 3.756208609271539 8.557326158940441  2.818708609271539 8.169288079470107  2.114031456953626 7.464610927152307  C 1.4093543046358263 6.759933774834508  1.0213162251656058 5.822433774834508  1.0213162251656058 4.829056291390771  C 1.0213162251656058 3.832574503311207  1.4093543046358263 2.895074503311207  2.114031456953626 2.1935016556290066  C 2.818708609271539 1.488824503311207  3.756208609271539 1.1007864238411003  4.752690397350989 1.1007864238411003  C 5.749172185430439 1.1007864238411003  6.686672185430439 1.488824503311207  7.391349337748352 2.1935016556290066  C 8.096026490066265 2.8981788079470334  8.484064569536486 3.8356788079470334  8.484064569536486 4.829056291390771  C 8.484064569536486 5.825538079470107  8.096026490066265 6.763038079470107  7.391349337748352 7.464610927152307  Z " fill-rule="nonzero" fill="#ffffff" stroke="none" transform="matrix(1 0 0 1 229 135 )" />
  </g>
</svg>