<?xml version="1.0" encoding="utf-8"?>
<svg version="1.1" xmlns:xlink="http://www.w3.org/1999/xlink" width="17px" height="16px" xmlns="http://www.w3.org/2000/svg">
  <g transform="matrix(1 0 0 1 -1113 -546 )">
    <path d="M 14.01171875 6.78125  C 14.14453125 6.65625  14.2109375 6.5  14.2109375 6.3125  C 14.2109375 6.118055555555555  14.14453125 5.958333333333334  14.01171875 5.833333333333334  L 13.004557291666668 4.895833333333334  C 12.864366319444446 4.7638888888888875  12.698350694444446 4.697916666666666  12.506510416666668 4.697916666666666  C 12.31467013888889 4.697916666666666  12.14865451388889 4.7638888888888875  12.008463541666668 4.895833333333334  L 7.492838541666666 9.135416666666668  L 4.991536458333334 6.78125  C 4.851345486111112 6.649305555555555  4.685329861111112 6.583333333333334  4.493489583333334 6.583333333333334  C 4.301649305555556 6.583333333333334  4.135633680555555 6.649305555555555  3.995442708333333 6.78125  L 2.98828125 7.71875  C 2.85546875 7.84375  2.7890625000000004 8.003472222222221  2.7890625 8.197916666666668  C 2.7890625000000004 8.385416666666668  2.85546875 8.541666666666668  2.98828125 8.666666666666668  L 6.994791666666666 12.4375  C 7.134982638888889 12.569444444444443  7.300998263888889 12.635416666666666  7.492838541666666 12.635416666666666  C 7.692057291666666 12.635416666666666  7.861762152777779 12.569444444444443  8.001953125 12.4375  L 14.01171875 6.78125  Z M 15.860026041666668 3.984375  C 16.620008680555554 5.210069444444443  17 6.548611111111109  17 8  C 17 9.45138888888889  16.620008680555554 10.789930555555554  15.860026041666668 12.015625  C 15.100043402777779 13.241319444444445  14.068901909722223 14.211805555555555  12.7666015625 14.927083333333334  C 11.464301215277779 15.642361111111112  10.042100694444445 16  8.5 16  C 6.957899305555556 16  5.535698784722222 15.642361111111112  4.2333984375 14.927083333333334  C 2.931098090277778 14.211805555555555  1.8999565972222223 13.241319444444445  1.1399739583333335 12.015625  C 0.3799913194444444 10.789930555555554  0 9.45138888888889  0 8  C 0 6.548611111111109  0.3799913194444444 5.210069444444443  1.1399739583333335 3.984375  C 1.8999565972222223 2.7586805555555554  2.931098090277778 1.7881944444444429  4.2333984375 1.072916666666666  C 5.535698784722222 0.3576388888888875  6.957899305555556 0  8.5 0  C 10.042100694444445 0  11.464301215277779 0.3576388888888875  12.7666015625 1.072916666666666  C 14.068901909722223 1.7881944444444429  15.100043402777779 2.7586805555555554  15.860026041666668 3.984375  Z " fill-rule="nonzero" fill="#63a103" stroke="none" transform="matrix(1 0 0 1 1113 546 )" />
  </g>
</svg>