<?xml version="1.0" encoding="utf-8"?>
<svg version="1.1" xmlns:xlink="http://www.w3.org/1999/xlink" width="14px" height="14px" xmlns="http://www.w3.org/2000/svg">
  <g transform="matrix(1 0 0 1 -22 -19 )">
    <path d="M 11.8125 14  L 2.1875 14  C 0.9793710937499966 14  0 13.020628906249996  0 11.8125  L 0 2.1875  C 0 0.9793710937499966  0.9793710937499966 0  2.1875 0  L 11.8125 0  C 13.020628906250003 0  14 0.9793710937499966  14 2.1875  L 14 11.8125  C 14 13.020628906249996  13.020628906250003 14  11.8125 14  Z M 11.8125 12.91472868217054  C 12.415593749999992 12.90625  12.90625 12.415593749999992  12.914728682170548 11.8125  L 12.914728682170548 2.1875  C 12.90625 1.5844062499999971  12.415593749999992 1.09375  11.8125 1.0852713178294593  L 2.1875 1.0852713178294593  C 1.5844062500000078 1.09375  1.09375 1.5844062499999971  1.0852713178294486 2.1875  L 1.0852713178294486 11.8125  C 1.09375 12.415593749999992  1.5844062500000078 12.90625  2.1875 12.91472868217054  L 11.8125 12.91472868217054  Z M 6.4031007751929 7.596899224806207  L 7.596899224806207 7.596884243111554  L 7.596899224806207 9.710047704233759  C 7.596899224806207 9.801683501276344  7.516726959078234 9.875968992248062  7.4178294573643475 9.875968992248062  L 6.582170542635655 9.875968992248062  C 6.483273040921766 9.875968992248062  6.403100775193796 9.801683501276344  6.403100775193796 9.710047704233759  L 6.4031007751929 7.596899224806207  Z M 6.403100775194371 6.403100775193796  L 7.596899224806207 6.403115756889907  L 7.596899224806207 4.2899522957662555  C 7.596899224806207 4.198316498723667  7.516726959078234 4.124031007751935  7.4178294573643475 4.124031007751935  L 6.582170542635655 4.124031007751935  C 6.483273040921766 4.124031007751935  6.403100775193796 4.198316498723667  6.403100775193796 4.2899522957662555  L 6.403100775194371 6.403100775193796  Z M 4.124031007751935 7.4178294573643475  C 4.124031007751935 7.516726959078234  4.198316498723656 7.596899224806207  4.289952295766245 7.596899224806207  L 9.710047704233759 7.596899224806207  C 9.801683501276344 7.596899224806207  9.875968992248062 7.516726959078234  9.875968992248062 7.4178294573643475  L 9.875968992248062 6.582170542635655  C 9.875968992248062 6.483273040921766  9.801683501276344 6.403100775193796  9.710047704233759 6.403100775193796  L 4.289952295766245 6.403100775193796  C 4.198316498723656 6.403100775193796  4.124031007751935 6.483273040921766  4.124031007751935 6.582170542635655  L 4.124031007751935 7.4178294573643475  Z " fill-rule="nonzero" fill="#219a89" stroke="none" transform="matrix(1 0 0 1 22 19 )" />
  </g>
</svg>