<?xml version="1.0" encoding="utf-8"?>
<svg version="1.1" xmlns:xlink="http://www.w3.org/1999/xlink" width="10px" height="11px" xmlns="http://www.w3.org/2000/svg">
  <g transform="matrix(1 0 0 1 -1001 -19 )">
    <path d="M 9.289772727272748 1.833333333333332  L 0.5362215909090082 1.833333333333332  L 1.374289772727252 10.16067708333333  C 1.374289772727252 10.624739583333337  1.8394886363637397 11  2.414772727272748 11  L 7.421875 11  C 7.997159090909008 11  8.462357954545496 10.624739583333337  8.462357954545496 10.16067708333333  L 9.289772727272748 1.833333333333332  Z M 3.3877840909090082 9.424479166666668  L 2.7237215909090082 9.424479166666668  L 2.485795454545496 2.75  L 3.142755681818244 2.75  L 3.3877840909090082 9.424479166666668  Z M 5.220170454545496 2.75  L 5.220170454545496 9.424479166666668  L 4.580965909090992 9.424479166666668  L 4.580965909090992 2.75  L 5.220170454545496 2.75  Z M 7.315340909090992 2.75  L 7.077414772727252 9.424479166666668  L 6.416903409090992 9.424479166666668  L 6.658380681818244 2.75  L 7.315340909090992 2.75  Z M 9.80113636363626 1.546875  C 9.80113636363626 1.0427083333333371  9.360795454545496 0.8020833333333321  8.735795454545496 0.8020833333333321  L 7.45738636363626 0.8020833333333321  L 6.5234375 0.14322916666666785  C 6.392045454545496 0.05156250000000639  6.225142045454504 0  6.0546875 0  L 3.7535511363637397 0  C 3.579545454545496 0  3.4090909090909918 0.05156250000000639  3.2776988636362603 0.14322916666666785  L 2.34375 0.8020833333333321  L 1.0653409090909918 0.8020833333333321  C 0.4403409090909918 0.8020833333333321  0 1.0427083333333371  0 1.546875  L 9.80113636363626 1.546875  Z " fill-rule="nonzero" fill="#ffffff" stroke="none" transform="matrix(1 0 0 1 1001 19 )" />
  </g>
</svg>