<?xml version="1.0" standalone="no"?><!DOCTYPE svg PUBLIC "-//W3C//DTD SVG 1.1//EN" "http://www.w3.org/Graphics/SVG/1.1/DTD/svg11.dtd"><svg t="1611553202290" class="icon" viewBox="0 0 1024 1024" version="1.1" xmlns="http://www.w3.org/2000/svg" p-id="10373" width="18" height="18" xmlns:xlink="http://www.w3.org/1999/xlink"><defs><style type="text/css"></style></defs><path d="M661.7 861H262v-0.1h100.9V722.2c0-0.9 0.3-1.8 0.3-2.7 1.5-81.2 67.7-146.9 149.1-146.9S660 638.3 661.5 719.5c0 0.9 0.3 1.8 0.3 2.7V861z m281.2-499.1l-94.4-61.8V180.2c0-20.6-16.7-37.3-37.3-37.3-20.6 0-37.3 16.7-37.3 37.3v71L532.8 93.3c-6.3-3.9-13.7-5.8-21.1-5.4-7.2-0.3-14.4 1.6-20.5 5.4L81.1 362c-17.3 11.3-22.1 34.5-10.8 51.7 11.3 17.2 34.5 22.1 51.7 10.8l16.9-11.1v458.7c0 35.1 31.7 63.7 70.7 63.7h605.5c39 0 70.7-28.6 70.7-63.7V413.9l16.2 10.6c17.2 11.3 40.4 6.5 51.7-10.8 11.2-17.3 6.4-40.4-10.8-51.8z m0 0" fill="#ffffff" p-id="10374"></path></svg>