<?xml version="1.0" encoding="utf-8"?>
<svg version="1.1" xmlns:xlink="http://www.w3.org/1999/xlink" width="107px" height="112px" xmlns="http://www.w3.org/2000/svg">
  <g transform="matrix(1 0 0 1 -1591 -84 )">
    <path d="M 1591.5 195.5  C 1591.5 195.5  1591.5 91.32873786407768  1591.5 91.32873786407768  C 1591.5 91.32873786407768  1652.9839030160808 91.32873786407768  1652.9839030160808 91.32873786407768  C 1652.9839030160808 91.32873786407768  1661.8952259305586 84.60605017256006  1661.8952259305586 84.60605017256006  C 1661.8952259305586 84.60605017256006  1672.6733033864832 91.32873786407768  1672.6733033864832 91.32873786407768  C 1672.6733033864832 91.32873786407768  1697.5 91.32873786407768  1697.5 91.32873786407768  C 1697.5 91.32873786407768  1697.5 195.5  1697.5 195.5  C 1697.5 195.5  1591.5 195.5  1591.5 195.5  Z " fill-rule="nonzero" fill="#f2f2f2" stroke="none" />
    <path d="M 1591 196  C 1591 196  1591 90.82873786407768  1591 90.82873786407768  C 1591 90.82873786407768  1652.8164556962024 90.82873786407768  1652.8164556962024 90.82873786407768  C 1652.8164556962024 90.82873786407768  1661.8683544303797 84.00000000000001  1661.8683544303797 84.00000000000001  C 1661.8683544303797 84.00000000000001  1672.8164556962024 90.82873786407768  1672.8164556962024 90.82873786407768  C 1672.8164556962024 90.82873786407768  1698 90.82873786407768  1698 90.82873786407768  C 1698 90.82873786407768  1698 196  1698 196  C 1698 196  1591 196  1591 196  Z M 1592 195  C 1592 195  1697 195  1697 195  C 1697 195  1697 91.82873786407768  1697 91.82873786407768  C 1697 91.82873786407768  1672.530151076764 91.82873786407768  1672.530151076764 91.82873786407768  C 1672.530151076764 91.82873786407768  1661.9220974307375 85.2121003451201  1661.9220974307375 85.2121003451201  C 1661.9220974307375 85.2121003451201  1653.151350335959 91.82873786407768  1653.151350335959 91.82873786407768  C 1653.151350335959 91.82873786407768  1592 91.82873786407768  1592 91.82873786407768  C 1592 91.82873786407768  1592 195  1592 195  Z " fill-rule="nonzero" fill="#e4e4e4" stroke="none" />
  </g>
</svg>