<?xml version="1.0" encoding="utf-8"?>
<svg version="1.1" xmlns:xlink="http://www.w3.org/1999/xlink" width="97px" height="80px" xmlns="http://www.w3.org/2000/svg">
  <g transform="matrix(1 0 0 1 -1531 -42 )">
    <path d="M 1531.5 121.5  C 1531.5 121.5  1531.5 49.25572815533982  1531.5 49.25572815533982  C 1531.5 49.25572815533982  1588.2571080244454 49.25572815533982  1588.2571080244454 49.25572815533982  C 1588.2571080244454 49.25572815533982  1598.1503688934515 42.60340814666993  1598.1503688934515 42.60340814666993  C 1598.1503688934515 42.60340814666993  1607.950973306493 49.25572815533982  1607.950973306493 49.25572815533982  C 1607.950973306493 49.25572815533982  1627.5 49.25572815533982  1627.5 49.25572815533982  C 1627.5 49.25572815533982  1627.5 121.5  1627.5 121.5  C 1627.5 121.5  1531.5 121.5  1531.5 121.5  Z " fill-rule="nonzero" fill="#f2f2f2" stroke="none" />
    <path d="M 1531 122  C 1531 122  1531 48.75572815533982  1531 48.75572815533982  C 1531 48.75572815533982  1588.1046374068378 48.75572815533982  1588.1046374068378 48.75572815533982  C 1588.1046374068378 48.75572815533982  1598.1516857920265 42.00000000000001  1598.1516857920265 42.00000000000001  C 1598.1516857920265 42.00000000000001  1608.1046374068378 48.75572815533982  1608.1046374068378 48.75572815533982  C 1608.1046374068378 48.75572815533982  1628 48.75572815533982  1628 48.75572815533982  C 1628 48.75572815533982  1628 122  1628 122  C 1628 122  1531 122  1531 122  Z M 1532 121  C 1532 121  1627 121  1627 121  C 1627 121  1627 49.75572815533982  1627 49.75572815533982  C 1627 49.75572815533982  1607.7973092061482 49.75572815533982  1607.7973092061482 49.75572815533982  C 1607.7973092061482 49.75572815533982  1598.1490519948763 43.20681629333985  1598.1490519948763 43.20681629333985  C 1598.1490519948763 43.20681629333985  1588.409578642053 49.75572815533982  1588.409578642053 49.75572815533982  C 1588.409578642053 49.75572815533982  1532 49.75572815533982  1532 49.75572815533982  C 1532 49.75572815533982  1532 121  1532 121  Z " fill-rule="nonzero" fill="#e4e4e4" stroke="none" />
  </g>
</svg>