<?xml version="1.0" standalone="no"?><!DOCTYPE svg PUBLIC "-//W3C//DTD SVG 1.1//EN" "http://www.w3.org/Graphics/SVG/1.1/DTD/svg11.dtd"><svg t="1614062789622" class="icon" viewBox="0 0 1024 1024" version="1.1" xmlns="http://www.w3.org/2000/svg" p-id="7460" width="20" height="20" xmlns:xlink="http://www.w3.org/1999/xlink"><defs><style type="text/css"></style></defs><path d="M512.006006 116.4921875a395.50218578 395.50218578 0 1 0 395.50218501 394.96627425A395.50218578 395.50218578 0 0 0 512.006006 116.4921875z m169.34781908 513.40256568a36.9778469 36.9778469 0 1 1-50.91152765 53.59108225L512.006006 562.90590092l-118.43629143 117.90038066a37.88889528 37.88889528 0 1 1-53.59108225-53.59108225l117.90038065-118.43629143-117.90038065-117.90038066a37.88889528 37.88889528 0 0 1 53.59108225-53.59108148l118.43629143 123.25948834 118.43629143-118.43629143a36.9778469 36.9778469 0 0 1 50.91152765 53.59108226l-117.90038066 117.90038065z" fill="#cdcdcd" p-id="7461"></path></svg>