<?xml version="1.0" encoding="utf-8"?>
<svg version="1.1" xmlns:xlink="http://www.w3.org/1999/xlink" width="14px" height="14px" xmlns="http://www.w3.org/2000/svg">
  <g transform="matrix(1 0 0 1 -201 -19 )">
    <path d="M 201 19  L 215 19  L 215 33  L 201 33  L 201 19  " fill-rule="nonzero" fill="#cccccc" stroke="none" />
    <path d="M 202 20  L 214 20  L 214 32  L 202 32  L 202 20  " fill-rule="nonzero" fill="#ffffff" stroke="none" />
    <path d="M 209.32999999999998 23.200000000000003  C 208.742 23.200000000000003  208.28 22.738000000000003  208.28 22.150000000000002  C 208.28 21.562  208.742 21.1  209.32999999999998 21.1  C 209.91799999999998 21.1  210.38 21.562  210.38 22.150000000000002  C 210.38 22.738000000000003  209.91799999999998 23.200000000000003  209.32999999999998 23.200000000000003  " fill-rule="nonzero" fill="#cccccc" stroke="none" />
    <path d="M 203 32  L 203 25.95  L 205.75 23.2  L 209.6 25.4  L 211.8 24.85  L 214 25.4  L 214 32  L 203 32  " fill-rule="nonzero" fill="#169bd5" stroke="none" />
  </g>
</svg>